<?xml version="1.0" encoding="utf-8"?>
<svg version="1.1" xmlns="http://www.w3.org/2000/svg" width="1080" height="1080" xmlns:bx="https://boxy-svg.com">
  <defs>
    <linearGradient id="gradient-1" bx:pinned="true"/>
  </defs>
  <path d="M 54.921 25.153 C 57.469 25.139 57.469 25.139 60.069 25.123 C 65.783 25.097 71.497 25.117 77.209 25.137 C 81.338 25.128 85.467 25.116 89.598 25.102 C 100.961 25.07 112.324 25.079 123.689 25.096 C 135.938 25.106 148.187 25.079 160.436 25.056 C 184.44 25.02 208.444 25.018 232.448 25.029 C 251.952 25.037 271.456 25.035 290.96 25.024 C 295.119 25.021 295.119 25.021 299.363 25.019 C 304.996 25.015 310.63 25.012 316.262 25.008 C 354.098 24.986 391.934 24.978 429.77 24.994 C 431.99 24.995 431.99 24.995 434.254 24.996 C 446.273 25.002 458.292 25.007 470.31 25.013 C 517.193 25.035 564.078 25.016 610.962 24.966 C 663.623 24.91 716.283 24.882 768.944 24.898 C 796.832 24.905 824.721 24.9 852.609 24.862 C 876.348 24.83 900.088 24.829 923.828 24.867 C 935.947 24.885 948.064 24.89 960.18 24.857 C 971.269 24.827 982.354 24.837 993.441 24.88 C 997.458 24.886 1001.475 24.88 1005.492 24.858 C 1010.942 24.829 1016.39 24.854 1021.839 24.892 C 1023.408 24.872 1024.977 24.851 1026.593 24.829 C 1037.491 24.987 1043.601 27.887 1052.043 34.644 C 1061.124 44.683 1059.455 57.11 1059.383 69.891 C 1059.401 73.633 1059.401 73.633 1059.418 77.453 C 1059.445 84.369 1059.441 91.286 1059.425 98.204 C 1059.415 105.666 1059.442 113.131 1059.464 120.594 C 1059.502 135.212 1059.503 149.83 1059.491 164.449 C 1059.482 176.329 1059.486 188.21 1059.498 200.091 C 1059.499 201.782 1059.5 203.473 1059.503 205.214 C 1059.506 208.649 1059.509 212.083 1059.513 215.518 C 1059.543 247.728 1059.53 279.94 1059.506 312.151 C 1059.484 341.621 1059.513 371.093 1059.563 400.563 C 1059.617 430.822 1059.637 461.081 1059.624 491.34 C 1059.615 508.329 1059.62 525.318 1059.659 542.305 C 1059.69 556.768 1059.693 571.23 1059.654 585.692 C 1059.635 593.07 1059.631 600.447 1059.664 607.826 C 1059.693 615.826 1059.667 623.823 1059.629 631.823 C 1059.65 634.154 1059.671 636.487 1059.693 638.889 C 1059.567 651.567 1058.859 659.763 1049.876 669.511 C 1041.592 676.062 1035.332 676.817 1024.907 676.793 C 1022.048 676.801 1019.188 676.811 1016.244 676.819 C 1013.09 676.796 1009.937 676.773 1006.783 676.749 C 1003.451 676.747 1000.12 676.748 996.787 676.753 C 987.756 676.753 978.721 676.715 969.688 676.671 C 960.243 676.629 950.798 676.626 941.355 676.617 C 923.474 676.597 905.594 676.544 887.714 676.478 C 867.357 676.406 847 676.371 826.641 676.338 C 784.769 676.27 742.897 676.156 701.024 676.011 C 701.028 687.344 701.112 698.674 701.268 710.006 C 701.311 713.851 701.331 717.698 701.329 721.545 C 701.332 745.999 701.473 765.636 719.691 784.005 C 722.259 786.361 724.905 788.638 727.61 790.838 C 731.913 794.357 735.79 798.13 739.736 802.043 C 749.785 811.475 757.989 818.957 772.207 819.105 C 779.852 817.458 786.837 815.125 794.196 812.519 C 821.668 809.516 847.577 817.322 869.17 834.278 C 891.114 853.083 902.506 873.76 905.541 902.905 C 906.508 935.261 896.749 960.384 875.18 984.1 C 853.596 1004.816 827.181 1010.851 798.276 1010.364 C 770.717 1008.174 749.593 996.374 730.683 976.651 C 713.593 956.35 706.906 932.091 706.833 905.977 C 707.526 899.189 707.526 899.189 710.241 892.622 C 713.64 883.908 714.844 878.232 714.026 868.854 C 705.666 854.169 691.479 843.071 679.087 831.883 C 673.99 827.117 668.92 822.326 663.856 817.529 C 660.702 814.561 657.528 811.617 654.327 808.701 C 642.69 798.02 635.407 789.782 633.855 773.515 C 633.596 765.98 633.603 758.456 633.644 750.917 C 633.648 747.699 633.648 747.699 633.652 744.415 C 633.665 737.594 633.692 730.772 633.719 723.951 C 633.73 719.313 633.74 714.673 633.749 710.036 C 633.771 698.693 633.813 687.353 633.855 676.011 C 613.118 676.011 592.382 676.011 571.019 676.011 C 571.733 741.795 572.449 807.577 573.184 875.354 C 580.336 878.929 587.486 882.504 594.853 886.188 C 615.886 900.857 630.383 921.786 636.023 946.858 C 639.205 977.083 636.266 1003.984 617.875 1029.06 C 602.186 1047.515 580.391 1063.979 555.474 1066.508 C 522.291 1068.102 497.513 1064.016 471.347 1042.196 C 451.516 1023.978 441.718 1001.012 439.115 974.451 C 438.156 945.818 446.937 922.392 465.388 900.543 C 474.707 890.75 484.95 883.026 497.347 877.521 C 499.492 877.521 501.639 877.521 503.847 877.521 C 503.847 811.023 503.847 744.525 503.847 676.011 C 483.113 676.011 462.376 676.011 441.012 676.011 C 441.239 687.675 441.239 687.675 441.469 699.574 C 441.57 707.14 441.65 714.706 441.726 722.272 C 441.791 727.513 441.879 732.755 441.992 737.996 C 442.151 745.548 442.225 753.097 442.282 760.65 C 442.349 762.979 442.416 765.306 442.485 767.704 C 442.493 786.266 437.034 794.735 424.286 807.613 C 420.364 811.4 416.345 815.051 412.294 818.697 C 409.339 821.459 406.39 824.227 403.444 826.999 C 398.863 831.301 394.264 835.563 389.575 839.746 C 370.596 855.444 370.596 855.444 362.481 877.269 C 364.176 884.998 366.634 891.834 369.508 899.189 C 372.612 926.608 364.66 952.626 347.747 974.163 C 328.942 996.106 308.266 1007.498 279.121 1010.533 C 246.764 1011.502 221.641 1001.741 197.926 980.172 C 179.158 960.655 171.398 935.008 171.543 908.447 C 172.303 878.961 184.303 855.88 205.375 835.675 C 225.601 818.648 249.967 811.76 276.03 811.863 C 282.836 812.519 282.836 812.519 289.574 814.877 C 298.831 818.063 307.679 821.108 317.244 817.469 C 326.395 812.302 333.834 805.482 341.261 798.11 C 345.198 794.303 349.321 790.921 353.565 787.468 C 367.326 774.849 374.24 762.404 375.347 743.656 C 375.657 734.38 375.706 725.114 375.701 715.834 C 375.743 711.965 375.791 708.096 375.844 704.228 C 375.962 694.821 376.006 685.418 376.008 676.011 C 374.279 676.019 372.549 676.027 370.766 676.034 C 328.665 676.227 286.565 676.369 244.466 676.46 C 224.107 676.506 203.747 676.566 183.388 676.665 C 165.643 676.752 147.898 676.806 130.152 676.827 C 120.756 676.837 111.36 676.864 101.965 676.927 C 93.119 676.985 84.273 677.003 75.427 676.991 C 72.183 676.994 68.938 677.01 65.695 677.043 C 61.257 677.087 56.823 677.077 52.387 677.054 C 49.906 677.061 47.426 677.069 44.871 677.077 C 34.37 675.449 28.022 670.694 20.98 662.912 C 17.041 652.786 17.589 642.865 17.651 632.096 C 17.638 629.602 17.627 627.107 17.615 624.535 C 17.589 617.619 17.593 610.701 17.608 603.785 C 17.618 596.321 17.591 588.857 17.57 581.393 C 17.532 566.777 17.531 552.158 17.542 537.54 C 17.55 525.658 17.547 513.777 17.536 501.896 C 17.534 500.206 17.533 498.515 17.531 496.774 C 17.527 493.34 17.524 489.905 17.52 486.471 C 17.491 454.259 17.503 422.049 17.527 389.837 C 17.549 360.366 17.52 330.895 17.469 301.425 C 17.416 271.166 17.395 240.907 17.41 210.648 C 17.417 193.66 17.413 176.671 17.374 159.682 C 17.343 145.22 17.341 130.758 17.379 116.297 C 17.397 108.918 17.402 101.54 17.369 94.161 C 17.341 86.162 17.365 78.164 17.404 70.165 C 17.383 67.834 17.362 65.502 17.341 63.099 C 17.467 50.423 18.173 42.225 27.156 32.478 C 36.162 25.66 43.986 25.052 54.921 25.153 Z M 83.493 90.98 C 83.493 219.688 83.493 348.394 83.493 481.001 C 383.809 481.001 684.124 481.001 993.54 481.001 C 993.54 352.294 993.54 223.587 993.54 90.98 C 693.224 90.98 392.909 90.98 83.493 90.98 Z M 83.493 546.004 C 83.493 567.455 83.493 588.906 83.493 611.007 C 383.809 611.007 684.124 611.007 993.54 611.007 C 993.54 589.556 993.54 568.105 993.54 546.004 C 693.224 546.004 392.909 546.004 83.493 546.004 Z M 245.13 891.775 C 239.434 900.772 238.175 908.272 239.5 918.69 C 243.81 930.255 250.133 937.006 261.168 942.525 C 272.492 943.484 280.656 943.164 290.32 936.87 C 297.775 930.169 301.731 922.018 302.828 912.079 C 302.289 901.388 297.951 894.71 290.666 887.078 C 284.572 881.751 279.163 880.147 271.325 878.876 C 261.203 880.287 252.023 884.017 245.13 891.775 Z M 781.602 892.012 C 776.016 900.47 773.768 906.418 774.696 916.522 C 777.45 926.422 781.814 933.681 790.54 939.275 C 801.785 943.849 809.222 944.192 820.604 939.951 C 829.355 934.312 834.239 928.568 837.532 918.69 C 838.532 908.284 837.59 900.759 831.903 891.775 C 825.031 884.042 815.879 880.413 805.843 878.739 C 795.573 880.632 789.108 884.84 781.602 892.012 Z M 510.619 951.462 C 506.957 960.819 506.753 969.451 508.182 979.359 C 512.867 988.907 517.709 994.957 527.682 998.861 C 538.611 1000.344 546.816 1000.105 556.799 995.205 C 564.078 988.635 568.188 984.254 569.537 974.307 C 570.114 961.918 568.783 954.219 560.184 944.691 C 551.87 937.355 543.643 937.08 532.963 937.43 C 522.861 938.886 517.17 944.039 510.619 951.462 Z" style="stroke-width: 4px; stroke-linecap: round; stroke-miterlimit: 7.66; stroke-dasharray: 2; fill-rule: nonzero; paint-order: fill; fill: rgb(240, 173, 68);"/>
  <path d="M 180.867 155.16 C 183.462 155.14 186.057 155.123 188.73 155.104 C 191.573 155.118 194.416 155.13 197.346 155.143 C 200.403 155.135 203.459 155.123 206.515 155.109 C 214.915 155.077 223.314 155.087 231.714 155.102 C 240.773 155.112 249.831 155.086 258.89 155.063 C 276.637 155.026 294.383 155.025 312.13 155.036 C 326.552 155.045 340.974 155.041 355.395 155.029 C 357.447 155.028 359.499 155.026 361.612 155.025 C 365.779 155.022 369.947 155.018 374.114 155.015 C 413.206 154.985 452.3 154.996 491.393 155.022 C 527.169 155.043 562.946 155.015 598.721 154.962 C 635.443 154.911 672.166 154.89 708.889 154.904 C 729.512 154.913 750.132 154.907 770.754 154.869 C 788.31 154.837 805.865 154.835 823.419 154.873 C 832.377 154.892 841.335 154.896 850.294 154.863 C 858.493 154.833 866.692 154.843 874.892 154.885 C 879.266 154.897 883.64 154.867 888.013 154.835 C 911.686 155.028 911.686 155.028 922.036 164.651 C 930.4 174.308 929.471 184.65 929.413 196.796 C 929.434 200.002 929.434 200.002 929.457 203.271 C 929.497 210.324 929.488 217.377 929.476 224.433 C 929.486 229.34 929.497 234.249 929.511 239.157 C 929.529 249.442 929.524 259.729 929.503 270.014 C 929.478 283.19 929.522 296.365 929.585 309.541 C 929.625 319.677 929.625 329.813 929.613 339.95 C 929.611 344.807 929.625 349.665 929.651 354.523 C 929.684 361.318 929.661 368.11 929.624 374.904 C 929.644 376.907 929.666 378.91 929.687 380.973 C 929.551 392.949 928.146 400.19 919.87 409.497 C 911.73 415.361 906.139 416.81 896.165 416.821 C 893.571 416.84 890.976 416.858 888.303 416.877 C 885.46 416.864 882.616 416.851 879.688 416.837 C 876.632 416.847 873.574 416.858 870.516 416.872 C 862.118 416.905 853.718 416.894 845.319 416.879 C 836.26 416.869 827.203 416.895 818.144 416.917 C 800.397 416.954 782.65 416.956 764.904 416.946 C 750.482 416.936 736.059 416.94 721.637 416.953 C 718.561 416.953 718.561 416.953 715.42 416.956 C 711.254 416.959 707.087 416.963 702.92 416.966 C 663.827 416.996 624.733 416.984 585.64 416.959 C 549.865 416.937 514.088 416.966 478.312 417.017 C 441.588 417.07 404.866 417.092 368.143 417.077 C 347.521 417.069 326.9 417.075 306.278 417.113 C 288.722 417.144 271.169 417.146 253.614 417.108 C 244.656 417.09 235.697 417.085 226.739 417.118 C 218.539 417.148 210.34 417.138 202.141 417.097 C 197.767 417.084 193.394 417.115 189.021 417.146 C 165.347 416.953 165.347 416.953 154.997 407.33 C 146.631 397.674 147.563 387.332 147.621 375.185 C 147.606 373.048 147.591 370.912 147.575 368.711 C 147.536 361.657 147.545 354.604 147.557 347.549 C 147.547 342.64 147.536 337.732 147.523 332.824 C 147.503 322.537 147.508 312.253 147.53 301.967 C 147.554 288.791 147.511 275.616 147.448 262.441 C 147.408 252.305 147.408 242.168 147.421 232.031 C 147.422 227.175 147.408 222.317 147.382 217.458 C 147.35 210.664 147.372 203.871 147.409 197.077 C 147.388 195.074 147.367 193.072 147.346 191.008 C 147.483 179.032 148.886 171.79 157.163 162.484 C 165.303 156.62 170.896 155.17 180.867 155.16 Z M 213.5 220.987 C 213.5 263.89 213.5 306.793 213.5 350.995 C 282.859 350.995 352.216 350.995 423.677 350.995 C 420.542 341.545 420.542 341.545 417.025 332.238 C 405.347 300.753 406.878 264.925 419.344 233.988 C 420.774 229.699 422.204 225.408 423.677 220.987 C 354.318 220.987 284.961 220.987 213.5 220.987 Z M 653.356 220.987 C 656.491 230.437 656.491 230.437 660.009 239.744 C 671.686 271.228 670.154 307.057 657.69 337.993 C 656.26 342.283 654.83 346.574 653.356 350.995 C 722.715 350.995 792.073 350.995 863.533 350.995 C 863.533 308.091 863.533 265.189 863.533 220.987 C 794.176 220.987 724.817 220.987 653.356 220.987 Z M 496.806 236.722 C 482.294 251.137 475.102 264.781 474.867 285.584 C 475.19 304.646 480.657 318.348 493.488 332.424 C 509.267 346.335 525.424 349.63 545.932 349.42 C 564.233 348.021 578.444 338.545 590.519 324.992 C 601.55 307.648 602.904 291.128 601.354 270.823 C 597.422 254.817 586.885 240.675 573.523 231.135 C 548.504 217.242 519.1 218.005 496.806 236.722 Z" style="fill: rgb(240, 173, 68);"/>
  <ellipse style="stroke: rgba(0, 0, 0, 0); fill: rgb(255, 255, 255);" cx="541.539" cy="285.618" rx="68.241" ry="66.331"/>
</svg>