<?xml version="1.0" encoding="utf-8"?>
<svg version="1.1" xmlns="http://www.w3.org/2000/svg" width="500" height="480" xmlns:bx="https://boxy-svg.com">
  <defs>
    <linearGradient id="gradient-1" bx:pinned="true"/>
  </defs>
  <path d="M0 0 C1.17600043 -0.00698988 1.17600043 -0.00698988 2.37575844 -0.01412097 C5.0128413 -0.02610801 7.64941247 -0.01666134 10.28649998 -0.00736332 C12.19220007 -0.01153461 14.09789767 -0.017011 16.00359064 -0.02368313 C21.24828656 -0.03818326 26.49282594 -0.03387877 31.73753059 -0.02651632 C37.39065884 -0.02179824 43.04375256 -0.03428241 48.69686985 -0.04453373 C59.77476149 -0.06175368 70.8525965 -0.06255514 81.93049806 -0.05732083 C90.93205048 -0.05328392 99.93358613 -0.05471698 108.93513775 -0.06006908 C110.85484841 -0.06119172 110.85484841 -0.06119172 112.8133411 -0.06233703 C115.41303305 -0.06386846 118.01272499 -0.06540681 120.61241693 -0.066952 C138.07429442 -0.07678489 155.53616095 -0.08094014 172.99803925 -0.07332611 C174.02253932 -0.07288035 174.02253932 -0.07288035 175.06773637 -0.07242559 C180.61439577 -0.06997658 186.1610551 -0.06736503 191.70771442 -0.06474145 C213.34537965 -0.05463824 234.98296728 -0.06299496 256.62062168 -0.086236 C280.9243924 -0.11229842 305.2281028 -0.12510977 329.53189093 -0.11804825 C342.40269349 -0.11455045 355.27343232 -0.11682507 368.14422512 -0.13429928 C379.10061928 -0.1489895 390.05690482 -0.14969837 401.01329678 -0.13222837 C406.60590377 -0.12368986 412.19831649 -0.12163822 417.79091358 -0.13687992 C422.90757517 -0.1506522 428.02387467 -0.14606042 433.14051492 -0.12664068 C434.99442925 -0.12285735 436.84837208 -0.12586923 438.7022612 -0.13625234 C441.21753079 -0.14934116 443.73153558 -0.13791222 446.24674988 -0.12025452 C446.97076615 -0.12990503 447.69478243 -0.13955554 448.44073859 -0.14949849 C453.47023233 -0.07673155 456.29037057 1.26206345 460.18629551 4.38031673 C464.37725803 9.01298309 463.60684214 14.74863824 463.57397556 20.64702511 C463.58205387 22.37442585 463.58205387 22.37442585 463.59029537 24.13672358 C463.60212674 27.32919738 463.60050348 30.52133679 463.59312856 33.71381366 C463.58840072 37.15834186 463.60090332 40.60281393 463.61114597 44.04732418 C463.62834684 50.79380163 463.62917134 57.54018599 463.62393307 64.28667968 C463.61989255 69.76992865 463.62133351 75.25315009 463.62668133 80.73639774 C463.62742975 81.51663983 463.62817817 82.29688191 463.62894927 83.10076769 C463.63048074 84.68579964 463.63201909 86.27083158 463.63356424 87.85586352 C463.64729392 102.72179407 463.64184829 117.58767201 463.63037903 132.45360137 C463.62044596 146.0548541 463.63338773 159.65597081 463.65731322 173.25720256 C463.6816934 187.22209724 463.69131477 201.18692854 463.68466049 215.15184408 C463.68116588 222.99244044 463.68341624 230.83293218 463.70091152 238.67351246 C463.71562 245.34798745 463.71628679 252.02228414 463.69884061 258.69675558 C463.69031695 262.10211843 463.68821388 265.50716258 463.70349216 268.91250896 C463.7166286 272.60418398 463.70521833 276.2949877 463.68750095 279.98662472 C463.69710596 281.06298449 463.70671097 282.13934426 463.71660703 283.248321 C463.65867715 289.09886733 463.33182355 292.88183775 459.18629551 297.38031673 C455.36326482 300.40386806 452.47403199 300.75269261 447.66265965 300.74108028 C446.34317829 300.74520428 445.02369694 300.74932827 443.6642313 300.75357723 C442.20893749 300.74296104 440.75364577 300.73205663 439.29835606 300.72089291 C437.76069245 300.72004638 436.22302763 300.72052228 434.68536472 300.72222042 C430.51626582 300.7230808 426.3474261 300.70544824 422.1783874 300.68449855 C417.81953068 300.6657388 413.46066794 300.66398186 409.10177708 300.66042233 C400.84996593 300.6510998 392.5982741 300.6264832 384.34651548 300.59637386 C374.95119004 300.56283632 365.55585889 300.54634546 356.16048849 300.53128755 C336.83568987 300.49993383 317.51100228 300.44716928 298.18629551 300.38031673 C298.18764498 305.61091596 298.22658479 310.83946815 298.29875755 316.06957054 C298.31815131 317.84462924 298.32768557 319.61982653 298.32674599 321.39499092 C298.32859385 332.68157402 298.39314026 341.74390577 306.80064201 350.22125053 C307.98655988 351.30881832 309.20722972 352.35940848 310.45558262 353.3747015 C312.44194542 354.99852844 314.23098591 356.73988041 316.05152988 358.54633236 C320.68989304 362.8993645 324.47636557 366.35214556 331.03785801 366.4203558 C334.56612889 365.66046325 337.78984454 364.58346677 341.18629551 363.38031673 C353.86489623 361.99516564 365.82216256 365.59737149 375.78785801 373.42328548 C385.91492518 382.10149496 391.17275587 391.64419352 392.57301426 405.09516048 C393.01993264 420.02839891 388.51528147 431.62256246 378.56129551 442.56781673 C368.5997988 452.12856358 356.4090173 454.91433639 343.06910801 454.68891048 C330.35023154 453.67805411 320.60113169 448.23214681 311.87379551 439.13031673 C303.98634728 429.76098429 300.90026262 418.56473388 300.86622715 406.51288509 C301.18629551 403.38031673 301.18629551 403.38031673 302.43995762 400.3500433 C304.00830929 396.32770376 304.56430384 393.70871104 304.18629551 389.38031673 C300.32839764 382.60290684 293.78034897 377.48056227 288.06129551 372.31781673 C285.70949266 370.1184188 283.36954503 367.90701848 281.03178501 365.69270992 C279.57689538 364.32319047 278.11150388 362.96471885 276.63450718 361.61907101 C271.26374382 356.68927312 267.90254226 352.88746082 267.18629551 345.38031673 C267.06696792 341.90251522 267.06980179 338.43013961 267.08863926 334.95062923 C267.09076168 333.46513073 267.09076168 333.46513073 267.09292698 331.94962215 C267.09850299 328.801489 267.11105109 325.65342822 267.12379551 322.50531673 C267.12881361 320.36469276 267.13337597 318.22406768 267.13746738 316.08344173 C267.14761162 310.84901674 267.16719175 305.6147473 267.18629551 300.38031673 C257.61629551 300.38031673 248.04629551 300.38031673 238.18629551 300.38031673 C238.51629551 330.74031673 238.84629551 361.10031673 239.18629551 392.38031673 C242.48629551 394.03031673 245.78629551 395.68031673 249.18629551 397.38031673 C258.89311945 404.15040412 265.58400135 413.80918551 268.18629551 425.38031673 C269.65575683 439.32946206 268.29924788 451.74507807 259.81129551 463.31781673 C252.57083009 471.83509541 242.51177131 479.43341905 231.01271152 480.60101986 C215.69812577 481.3361449 204.26219494 479.4504589 192.18629551 469.38031673 C183.03397551 460.97253071 178.51213794 450.37329156 177.31129551 438.11469173 C176.86897518 424.9003718 180.92079259 414.08827506 189.43629551 404.00531673 C193.73717637 399.48574702 198.46501702 395.92081224 204.18629551 393.38031673 C205.17629551 393.38031673 206.16629551 393.38031673 207.18629551 393.38031673 C207.18629551 362.69031673 207.18629551 332.00031673 207.18629551 300.38031673 C197.61629551 300.38031673 188.04629551 300.38031673 178.18629551 300.38031673 C178.29070957 305.76344173 178.29070957 305.76344173 178.39723301 311.25531673 C178.44408069 314.74698361 178.48048114 318.23861493 178.51588535 321.73041439 C178.54598259 324.14952019 178.5868707 326.56851754 178.63893223 328.98725033 C178.7120538 332.47271185 178.74582418 335.9567258 178.77223301 339.44281673 C178.80320072 340.5170892 178.83416843 341.59136166 178.86607456 342.69818783 C178.86987907 351.26492424 176.35049174 355.17324704 170.46711826 361.11719418 C168.65758977 362.86472034 166.80242142 364.54940074 164.93238926 366.23187923 C163.56885876 367.50687174 162.20759387 368.78429077 160.84840488 370.06391048 C158.73413953 372.0484497 156.61181901 374.01599924 154.44777012 375.9462347 C145.68868925 383.19144954 145.68868925 383.19144954 141.94313145 393.26361752 C142.72571212 396.83104471 143.85960285 399.98601255 145.18629551 403.38031673 C146.61853227 416.03512257 142.9487642 428.04225909 135.14332676 437.98187923 C126.46511728 448.10894641 116.92241873 453.36677709 103.47145176 454.76703548 C88.53821333 455.21395387 76.94404978 450.70930269 65.99879551 440.75531673 C57.33701143 431.74775285 53.75585781 419.91103138 53.82277012 407.65326595 C54.17334002 394.04492137 59.71129956 383.39267868 69.43629551 374.06781673 C78.77084841 366.2096472 90.01638177 363.03018524 102.04493809 363.07855892 C105.18629551 363.38031673 105.18629551 363.38031673 108.29567051 364.46918392 C112.56733399 365.93944838 116.65169395 367.3447951 121.06511021 365.66538143 C125.28930805 363.28090878 128.72188902 360.13312599 132.15040684 356.73114681 C133.96648538 354.97407703 135.86952842 353.41331726 137.82887363 351.81976986 C144.17940473 345.99589853 147.37010655 340.25250702 147.88118875 331.59961307 C148.02398603 327.31834397 148.04671693 323.04227025 148.04444981 318.75897884 C148.06395712 316.97352583 148.08599733 315.1880986 148.1106348 313.40270901 C148.16508224 309.06165829 148.18517545 304.72169536 148.18629551 300.38031673 C147.38784403 300.38400391 146.58939255 300.38769108 145.76674557 300.39148998 C126.33705159 300.47983426 106.90739772 300.54602306 87.47754574 300.58756542 C78.08139806 300.60818908 68.68538447 300.63630592 59.28932285 300.68207455 C51.09953682 300.72194833 42.90984789 300.74775098 34.71996748 300.75667071 C30.38360264 300.76188456 26.04751561 300.77413479 21.71123981 300.80323696 C17.6285788 300.83041469 13.54630967 300.83875703 9.46356678 300.83274746 C7.96638706 300.83384665 6.46919405 300.84178676 4.97209263 300.85713863 C2.92431207 300.87710494 0.878002 300.87223366 -1.16981411 300.8613348 C-2.314681 300.86502197 -3.45954788 300.86870914 -4.6391077 300.87250805 C-9.48462309 300.12125655 -12.41461908 297.92685787 -15.66447449 294.33448601 C-17.48232437 289.66158656 -17.22907726 285.08347163 -17.20138454 280.11360836 C-17.20677008 278.96200787 -17.21215562 277.81040737 -17.21770436 276.62390989 C-17.22953572 273.43143608 -17.22791246 270.23929668 -17.22053754 267.04681981 C-17.2158097 263.6022916 -17.2283123 260.15781953 -17.23855495 256.71330929 C-17.25575582 249.96683184 -17.25658032 243.22044748 -17.25134205 236.47395379 C-17.24730154 230.99070482 -17.24874249 225.50748338 -17.25409031 220.02423573 C-17.25483873 219.24399364 -17.25558715 218.46375156 -17.25635825 217.65986578 C-17.25788972 216.07483383 -17.25942807 214.48980189 -17.26097322 212.90476995 C-17.2747029 198.03883939 -17.26925728 183.17296146 -17.25778801 168.3070321 C-17.24785494 154.70577937 -17.26079671 141.10466266 -17.2847222 127.50343091 C-17.30910238 113.53853623 -17.31872375 99.57370493 -17.31206948 85.60878938 C-17.30857487 77.76819302 -17.31082522 69.92770129 -17.3283205 62.08712101 C-17.34302898 55.41264602 -17.34369577 48.73834933 -17.32624959 42.06387789 C-17.31772593 38.65851504 -17.31562286 35.25347089 -17.33090115 31.8481245 C-17.34403758 28.15644949 -17.33262732 24.46564577 -17.31490993 20.77400875 C-17.32451494 19.69764898 -17.33411995 18.62128921 -17.34401602 17.51231247 C-17.28608613 11.66176613 -16.95923253 7.87879572 -12.81370449 3.38031673 C-8.65804977 0.23409998 -5.04709815 -0.0468166 0 0 Z M13.18629551 30.38031673 C13.18629551 89.78031673 13.18629551 149.18031673 13.18629551 210.38031673 C151.78629551 210.38031673 290.38629551 210.38031673 433.18629551 210.38031673 C433.18629551 150.98031673 433.18629551 91.58031673 433.18629551 30.38031673 C294.58629551 30.38031673 155.98629551 30.38031673 13.18629551 30.38031673 Z M13.18629551 240.38031673 C13.18629551 250.28031673 13.18629551 260.18031673 13.18629551 270.38031673 C151.78629551 270.38031673 290.38629551 270.38031673 433.18629551 270.38031673 C433.18629551 260.48031673 433.18629551 250.58031673 433.18629551 240.38031673 C294.58629551 240.38031673 155.98629551 240.38031673 13.18629551 240.38031673 Z M87.78395176 399.95844173 C85.15557399 404.11146568 84.57429988 407.57177962 85.18629551 412.38031673 C87.17473668 417.71771147 90.09297199 420.83365497 95.18629551 423.38031673 C100.41222377 423.82319201 104.18021822 423.67555974 108.63942051 420.77094173 C112.08022054 417.67769726 113.90615273 413.91609193 114.41285801 409.32953548 C114.16374984 404.39527746 112.16217097 401.31357289 108.79957676 397.79047298 C105.98757719 395.33252663 103.49102427 394.59189437 99.87379551 394.00531673 C95.20243466 394.65713453 90.96543586 396.37816436 87.78395176 399.95844173 Z M335.37379551 400.06781673 C332.79603635 403.97128061 331.75835122 406.71659729 332.18629551 411.38031673 C333.45720309 415.94893875 335.47218318 419.29892192 339.49879551 421.88031673 C344.6887225 423.99147348 348.12031426 424.14999602 353.37379551 422.19281673 C357.41222894 419.59027075 359.6666933 416.93912337 361.18629551 412.38031673 C361.64811792 407.57736362 361.21286035 404.10489784 358.58863926 399.95844173 C355.41733376 396.38961884 351.19298072 394.71476427 346.56129551 393.94281673 C341.8213887 394.81595746 338.83770005 396.75786351 335.37379551 400.06781673 Z M210.31129551 427.50531673 C208.621453 431.82380316 208.52668568 435.80702193 209.18629551 440.38031673 C211.34928388 444.78640416 213.5831003 447.57906643 218.18629551 449.38031673 C223.22954935 450.06457731 227.01706435 449.95430294 231.62379551 447.69281673 C234.98285563 444.6614698 236.87985182 442.63892025 237.50270176 438.04828548 C237.76843203 432.33079864 237.15476703 428.7778122 233.18629551 424.38031673 C229.34916355 420.99461207 225.55228089 420.86740501 220.62379551 421.02875423 C215.96103405 421.70126791 213.33439258 424.07914005 210.31129551 427.50531673 Z " transform="translate(16.81370449066162,-0.38031673431396484)" style="stroke-width: 4px; stroke-linecap: round; stroke-miterlimit: 7.66; stroke-dasharray: 2; fill-rule: nonzero; paint-order: fill; fill: rgb(240, 173, 68);"/>
  <path d="M0 0 C1.19757634 -0.00843994 2.39515267 -0.01687988 3.6290192 -0.02557558 C4.94106659 -0.01956553 6.25311398 -0.01355549 7.60492039 -0.00736332 C9.01564555 -0.01153627 10.42636735 -0.01701358 11.83708292 -0.02368313 C15.71360753 -0.03816163 19.58991996 -0.03388558 23.46645629 -0.02651632 C27.64718341 -0.02179288 31.82786408 -0.03428717 36.00857639 -0.04453373 C44.19885739 -0.06174319 52.38906174 -0.06255731 60.57935613 -0.05732083 C67.23537247 -0.05328194 73.89136614 -0.05471933 80.5473814 -0.06006908 C81.49414516 -0.06081751 82.44090892 -0.06156593 83.41636248 -0.06233703 C85.33961443 -0.06386848 87.26286637 -0.06540683 89.18611831 -0.066952 C107.22815311 -0.08068477 125.27014457 -0.07523386 143.31217838 -0.06376678 C159.82335879 -0.05383325 176.33442716 -0.06677579 192.84559029 -0.09070098 C209.79371521 -0.11507458 226.74178792 -0.12470415 243.68993002 -0.11804825 C253.20725993 -0.1145522 262.72450365 -0.1168135 272.24182034 -0.13429928 C280.34359894 -0.14899952 288.44523065 -0.14968527 296.5470063 -0.13222837 C300.68144541 -0.12369803 304.81562188 -0.12161817 308.95004749 -0.13687992 C312.7344493 -0.15067679 316.51836223 -0.14602897 320.3027354 -0.12664068 C322.32116339 -0.12107536 324.33961596 -0.13519381 326.35799736 -0.14999479 C337.28348433 -0.06065358 337.28348433 -0.06065358 342.06037998 4.38031673 C345.92084336 8.83667197 345.49167547 13.60985359 345.46443272 19.21601009 C345.47472759 20.69494495 345.47472759 20.69494495 345.48523045 22.20375729 C345.50351526 25.45937197 345.49965843 28.71450552 345.49397373 31.97016048 C345.49853472 34.23550734 345.50384005 36.5008528 345.50985813 38.76619625 C345.51879257 43.5131966 345.51636223 48.26002874 345.5064249 53.00702572 C345.49493515 59.08795067 345.51514563 65.16829494 345.54434204 71.2491436 C345.56269485 75.9271936 345.56241337 80.60510422 345.55670452 85.28318119 C345.55655119 87.52505527 345.56260492 89.76693873 345.57499599 92.00877857 C345.58988625 95.14463174 345.57924259 98.27940916 345.56208897 101.41522884 C345.57175694 102.33957729 345.5814249 103.26392574 345.59138584 104.21628475 C345.52813128 109.74320508 344.88045907 113.08541401 341.06037998 117.38031673 C337.30413398 120.08672276 334.72316745 120.75605169 330.12075996 120.76063347 C328.92318363 120.76907341 327.72560729 120.77751335 326.49174076 120.78620905 C325.17969337 120.780199 323.86764598 120.77418896 322.51583958 120.76799679 C321.10511441 120.77216974 319.69439261 120.77764705 318.28367704 120.7843166 C314.40715244 120.7987951 310.53084001 120.79451905 306.65430367 120.78714979 C302.47357655 120.78242635 298.29289588 120.79492064 294.11218357 120.8051672 C285.92190257 120.82237666 277.73169822 120.82319078 269.54140384 120.81795429 C262.88538749 120.81391541 256.22939382 120.8153528 249.57337856 120.82070255 C248.15323293 120.82182519 248.15323293 120.82182519 246.70439748 120.8229705 C244.78114553 120.82450195 242.85789359 120.8260403 240.93464165 120.82758547 C222.89260685 120.84131824 204.8506154 120.83586733 186.80858158 120.82440025 C170.29740117 120.81446671 153.78633281 120.82740925 137.27516968 120.85133445 C120.32704475 120.87570805 103.37897205 120.88533762 86.43082994 120.87868172 C76.91350003 120.87518567 67.39625631 120.87744697 57.87893963 120.89493275 C49.77716103 120.90963299 41.67552931 120.91031874 33.57375366 120.89286184 C29.43931456 120.8843315 25.30513809 120.88225163 21.17071247 120.89751339 C17.38631066 120.91131026 13.60239773 120.90666244 9.81802457 120.88727415 C7.79959657 120.88170882 5.781144 120.89582728 3.76276261 120.91062826 C-7.16272437 120.82128705 -7.16272437 120.82128705 -11.93962002 116.38031673 C-15.80008339 111.9239615 -15.37091551 107.15077988 -15.34367275 101.54462337 C-15.350536 100.5586668 -15.35739925 99.57271023 -15.36447048 98.55687618 C-15.3827553 95.3012615 -15.37889847 92.04612794 -15.37321377 88.79047298 C-15.37777476 86.52512613 -15.38308008 84.25978067 -15.38909817 81.99443722 C-15.3980326 77.24743687 -15.39560227 72.50060472 -15.38566494 67.75360775 C-15.37417519 61.6726828 -15.39438567 55.59233853 -15.42358208 49.51148987 C-15.44193489 44.83343987 -15.4416534 40.15552925 -15.43594456 35.47745228 C-15.43579123 33.2355782 -15.44184496 30.99369474 -15.45423603 28.7518549 C-15.46912629 25.61600173 -15.45848262 22.48122431 -15.441329 19.34540462 C-15.45099697 18.42105618 -15.46066494 17.49670773 -15.47062588 16.54434872 C-15.40737131 11.01742839 -14.7596991 7.67521946 -10.93962002 3.38031673 C-7.18337402 0.67391071 -4.60240749 0.00458178 0 0 Z M15.06037998 30.38031673 C15.06037998 50.18031673 15.06037998 69.98031673 15.06037998 90.38031673 C47.07037998 90.38031673 79.08037998 90.38031673 112.06037998 90.38031673 C110.61326376 86.01981546 110.61326376 86.01981546 108.99006748 81.72406673 C103.60089962 67.19327339 104.3074393 50.65768776 110.06037998 36.38031673 C110.72037998 34.40031673 111.38037998 32.42031673 112.06037998 30.38031673 C80.05037998 30.38031673 48.04037998 30.38031673 15.06037998 30.38031673 Z M218.06037998 30.38031673 C219.5074962 34.74081801 219.5074962 34.74081801 221.13069248 39.03656673 C226.51986034 53.56736007 225.81332066 70.10294571 220.06037998 84.38031673 C219.40037998 86.36031673 218.74037998 88.34031673 218.06037998 90.38031673 C250.07037998 90.38031673 282.08037998 90.38031673 315.06037998 90.38031673 C315.06037998 70.58031673 315.06037998 50.78031673 315.06037998 30.38031673 C283.05037998 30.38031673 251.04037998 30.38031673 218.06037998 30.38031673 Z M145.81037998 37.64203548 C139.11285679 44.29470919 135.79313929 50.5914626 135.68537998 60.19281673 C135.83354596 68.99017155 138.35722715 75.31403939 144.27912998 81.81000423 C151.56125214 88.22976982 159.01772971 89.75112589 168.48225498 89.65375423 C176.92909061 89.00825369 183.48716968 84.63441698 189.06037998 78.38031673 C194.15143236 70.37588756 194.77650337 62.75130279 194.06037998 53.38031673 C192.24639797 45.99325747 187.3828002 39.46645151 181.21662998 35.06391048 C169.66966694 28.65156011 156.099092 29.00380435 145.81037998 37.64203548 Z " transform="translate(74.93962001800537,59.619683265686035)" style="fill: rgb(240, 173, 68);"/>
  <ellipse style="stroke: rgba(0, 0, 0, 0); fill: rgb(255, 255, 255);" cx="241.395" cy="119.828" rx="31.494" ry="30.612"/>
</svg>