<?xml version="1.0" encoding="utf-8"?>
<svg version="1.1" xmlns="http://www.w3.org/2000/svg" width="1768" height="480" xmlns:bx="https://boxy-svg.com">
  <defs>
    <linearGradient id="gradient-1" bx:pinned="true"/>
  </defs>
  <path d="M0 0 C1.17600043 -0.00698988 1.17600043 -0.00698988 2.37575844 -0.01412097 C5.0128413 -0.02610801 7.64941247 -0.01666134 10.28649998 -0.00736332 C12.19220007 -0.01153461 14.09789767 -0.017011 16.00359064 -0.02368313 C21.24828656 -0.03818326 26.49282594 -0.03387877 31.73753059 -0.02651632 C37.39065884 -0.02179824 43.04375256 -0.03428241 48.69686985 -0.04453373 C59.77476149 -0.06175368 70.8525965 -0.06255514 81.93049806 -0.05732083 C90.93205048 -0.05328392 99.93358613 -0.05471698 108.93513775 -0.06006908 C110.85484841 -0.06119172 110.85484841 -0.06119172 112.8133411 -0.06233703 C115.41303305 -0.06386846 118.01272499 -0.06540681 120.61241693 -0.066952 C138.07429442 -0.07678489 155.53616095 -0.08094014 172.99803925 -0.07332611 C174.02253932 -0.07288035 174.02253932 -0.07288035 175.06773637 -0.07242559 C180.61439577 -0.06997658 186.1610551 -0.06736503 191.70771442 -0.06474145 C213.34537965 -0.05463824 234.98296728 -0.06299496 256.62062168 -0.086236 C280.9243924 -0.11229842 305.2281028 -0.12510977 329.53189093 -0.11804825 C342.40269349 -0.11455045 355.27343232 -0.11682507 368.14422512 -0.13429928 C379.10061928 -0.1489895 390.05690482 -0.14969837 401.01329678 -0.13222837 C406.60590377 -0.12368986 412.19831649 -0.12163822 417.79091358 -0.13687992 C422.90757517 -0.1506522 428.02387467 -0.14606042 433.14051492 -0.12664068 C434.99442925 -0.12285735 436.84837208 -0.12586923 438.7022612 -0.13625234 C441.21753079 -0.14934116 443.73153558 -0.13791222 446.24674988 -0.12025452 C446.97076615 -0.12990503 447.69478243 -0.13955554 448.44073859 -0.14949849 C453.47023233 -0.07673155 456.29037057 1.26206345 460.18629551 4.38031673 C464.37725803 9.01298309 463.60684214 14.74863824 463.57397556 20.64702511 C463.58205387 22.37442585 463.58205387 22.37442585 463.59029537 24.13672358 C463.60212674 27.32919738 463.60050348 30.52133679 463.59312856 33.71381366 C463.58840072 37.15834186 463.60090332 40.60281393 463.61114597 44.04732418 C463.62834684 50.79380163 463.62917134 57.54018599 463.62393307 64.28667968 C463.61989255 69.76992865 463.62133351 75.25315009 463.62668133 80.73639774 C463.62742975 81.51663983 463.62817817 82.29688191 463.62894927 83.10076769 C463.63048074 84.68579964 463.63201909 86.27083158 463.63356424 87.85586352 C463.64729392 102.72179407 463.64184829 117.58767201 463.63037903 132.45360137 C463.62044596 146.0548541 463.63338773 159.65597081 463.65731322 173.25720256 C463.6816934 187.22209724 463.69131477 201.18692854 463.68466049 215.15184408 C463.68116588 222.99244044 463.68341624 230.83293218 463.70091152 238.67351246 C463.71562 245.34798745 463.71628679 252.02228414 463.69884061 258.69675558 C463.69031695 262.10211843 463.68821388 265.50716258 463.70349216 268.91250896 C463.7166286 272.60418398 463.70521833 276.2949877 463.68750095 279.98662472 C463.69710596 281.06298449 463.70671097 282.13934426 463.71660703 283.248321 C463.65867715 289.09886733 463.33182355 292.88183775 459.18629551 297.38031673 C455.36326482 300.40386806 452.47403199 300.75269261 447.66265965 300.74108028 C446.34317829 300.74520428 445.02369694 300.74932827 443.6642313 300.75357723 C442.20893749 300.74296104 440.75364577 300.73205663 439.29835606 300.72089291 C437.76069245 300.72004638 436.22302763 300.72052228 434.68536472 300.72222042 C430.51626582 300.7230808 426.3474261 300.70544824 422.1783874 300.68449855 C417.81953068 300.6657388 413.46066794 300.66398186 409.10177708 300.66042233 C400.84996593 300.6510998 392.5982741 300.6264832 384.34651548 300.59637386 C374.95119004 300.56283632 365.55585889 300.54634546 356.16048849 300.53128755 C336.83568987 300.49993383 317.51100228 300.44716928 298.18629551 300.38031673 C298.18764498 305.61091596 298.22658479 310.83946815 298.29875755 316.06957054 C298.31815131 317.84462924 298.32768557 319.61982653 298.32674599 321.39499092 C298.32859385 332.68157402 298.39314026 341.74390577 306.80064201 350.22125053 C307.98655988 351.30881832 309.20722972 352.35940848 310.45558262 353.3747015 C312.44194542 354.99852844 314.23098591 356.73988041 316.05152988 358.54633236 C320.68989304 362.8993645 324.47636557 366.35214556 331.03785801 366.4203558 C334.56612889 365.66046325 337.78984454 364.58346677 341.18629551 363.38031673 C353.86489623 361.99516564 365.82216256 365.59737149 375.78785801 373.42328548 C385.91492518 382.10149496 391.17275587 391.64419352 392.57301426 405.09516048 C393.01993264 420.02839891 388.51528147 431.62256246 378.56129551 442.56781673 C368.5997988 452.12856358 356.4090173 454.91433639 343.06910801 454.68891048 C330.35023154 453.67805411 320.60113169 448.23214681 311.87379551 439.13031673 C303.98634728 429.76098429 300.90026262 418.56473388 300.86622715 406.51288509 C301.18629551 403.38031673 301.18629551 403.38031673 302.43995762 400.3500433 C304.00830929 396.32770376 304.56430384 393.70871104 304.18629551 389.38031673 C300.32839764 382.60290684 293.78034897 377.48056227 288.06129551 372.31781673 C285.70949266 370.1184188 283.36954503 367.90701848 281.03178501 365.69270992 C279.57689538 364.32319047 278.11150388 362.96471885 276.63450718 361.61907101 C271.26374382 356.68927312 267.90254226 352.88746082 267.18629551 345.38031673 C267.06696792 341.90251522 267.06980179 338.43013961 267.08863926 334.95062923 C267.09076168 333.46513073 267.09076168 333.46513073 267.09292698 331.94962215 C267.09850299 328.801489 267.11105109 325.65342822 267.12379551 322.50531673 C267.12881361 320.36469276 267.13337597 318.22406768 267.13746738 316.08344173 C267.14761162 310.84901674 267.16719175 305.6147473 267.18629551 300.38031673 C257.61629551 300.38031673 248.04629551 300.38031673 238.18629551 300.38031673 C238.51629551 330.74031673 238.84629551 361.10031673 239.18629551 392.38031673 C242.48629551 394.03031673 245.78629551 395.68031673 249.18629551 397.38031673 C258.89311945 404.15040412 265.58400135 413.80918551 268.18629551 425.38031673 C269.65575683 439.32946206 268.29924788 451.74507807 259.81129551 463.31781673 C252.57083009 471.83509541 242.51177131 479.43341905 231.01271152 480.60101986 C215.69812577 481.3361449 204.26219494 479.4504589 192.18629551 469.38031673 C183.03397551 460.97253071 178.51213794 450.37329156 177.31129551 438.11469173 C176.86897518 424.9003718 180.92079259 414.08827506 189.43629551 404.00531673 C193.73717637 399.48574702 198.46501702 395.92081224 204.18629551 393.38031673 C205.17629551 393.38031673 206.16629551 393.38031673 207.18629551 393.38031673 C207.18629551 362.69031673 207.18629551 332.00031673 207.18629551 300.38031673 C197.61629551 300.38031673 188.04629551 300.38031673 178.18629551 300.38031673 C178.29070957 305.76344173 178.29070957 305.76344173 178.39723301 311.25531673 C178.44408069 314.74698361 178.48048114 318.23861493 178.51588535 321.73041439 C178.54598259 324.14952019 178.5868707 326.56851754 178.63893223 328.98725033 C178.7120538 332.47271185 178.74582418 335.9567258 178.77223301 339.44281673 C178.80320072 340.5170892 178.83416843 341.59136166 178.86607456 342.69818783 C178.86987907 351.26492424 176.35049174 355.17324704 170.46711826 361.11719418 C168.65758977 362.86472034 166.80242142 364.54940074 164.93238926 366.23187923 C163.56885876 367.50687174 162.20759387 368.78429077 160.84840488 370.06391048 C158.73413953 372.0484497 156.61181901 374.01599924 154.44777012 375.9462347 C145.68868925 383.19144954 145.68868925 383.19144954 141.94313145 393.26361752 C142.72571212 396.83104471 143.85960285 399.98601255 145.18629551 403.38031673 C146.61853227 416.03512257 142.9487642 428.04225909 135.14332676 437.98187923 C126.46511728 448.10894641 116.92241873 453.36677709 103.47145176 454.76703548 C88.53821333 455.21395387 76.94404978 450.70930269 65.99879551 440.75531673 C57.33701143 431.74775285 53.75585781 419.91103138 53.82277012 407.65326595 C54.17334002 394.04492137 59.71129956 383.39267868 69.43629551 374.06781673 C78.77084841 366.2096472 90.01638177 363.03018524 102.04493809 363.07855892 C105.18629551 363.38031673 105.18629551 363.38031673 108.29567051 364.46918392 C112.56733399 365.93944838 116.65169395 367.3447951 121.06511021 365.66538143 C125.28930805 363.28090878 128.72188902 360.13312599 132.15040684 356.73114681 C133.96648538 354.97407703 135.86952842 353.41331726 137.82887363 351.81976986 C144.17940473 345.99589853 147.37010655 340.25250702 147.88118875 331.59961307 C148.02398603 327.31834397 148.04671693 323.04227025 148.04444981 318.75897884 C148.06395712 316.97352583 148.08599733 315.1880986 148.1106348 313.40270901 C148.16508224 309.06165829 148.18517545 304.72169536 148.18629551 300.38031673 C147.38784403 300.38400391 146.58939255 300.38769108 145.76674557 300.39148998 C126.33705159 300.47983426 106.90739772 300.54602306 87.47754574 300.58756542 C78.08139806 300.60818908 68.68538447 300.63630592 59.28932285 300.68207455 C51.09953682 300.72194833 42.90984789 300.74775098 34.71996748 300.75667071 C30.38360264 300.76188456 26.04751561 300.77413479 21.71123981 300.80323696 C17.6285788 300.83041469 13.54630967 300.83875703 9.46356678 300.83274746 C7.96638706 300.83384665 6.46919405 300.84178676 4.97209263 300.85713863 C2.92431207 300.87710494 0.878002 300.87223366 -1.16981411 300.8613348 C-2.314681 300.86502197 -3.45954788 300.86870914 -4.6391077 300.87250805 C-9.48462309 300.12125655 -12.41461908 297.92685787 -15.66447449 294.33448601 C-17.48232437 289.66158656 -17.22907726 285.08347163 -17.20138454 280.11360836 C-17.20677008 278.96200787 -17.21215562 277.81040737 -17.21770436 276.62390989 C-17.22953572 273.43143608 -17.22791246 270.23929668 -17.22053754 267.04681981 C-17.2158097 263.6022916 -17.2283123 260.15781953 -17.23855495 256.71330929 C-17.25575582 249.96683184 -17.25658032 243.22044748 -17.25134205 236.47395379 C-17.24730154 230.99070482 -17.24874249 225.50748338 -17.25409031 220.02423573 C-17.25483873 219.24399364 -17.25558715 218.46375156 -17.25635825 217.65986578 C-17.25788972 216.07483383 -17.25942807 214.48980189 -17.26097322 212.90476995 C-17.2747029 198.03883939 -17.26925728 183.17296146 -17.25778801 168.3070321 C-17.24785494 154.70577937 -17.26079671 141.10466266 -17.2847222 127.50343091 C-17.30910238 113.53853623 -17.31872375 99.57370493 -17.31206948 85.60878938 C-17.30857487 77.76819302 -17.31082522 69.92770129 -17.3283205 62.08712101 C-17.34302898 55.41264602 -17.34369577 48.73834933 -17.32624959 42.06387789 C-17.31772593 38.65851504 -17.31562286 35.25347089 -17.33090115 31.8481245 C-17.34403758 28.15644949 -17.33262732 24.46564577 -17.31490993 20.77400875 C-17.32451494 19.69764898 -17.33411995 18.62128921 -17.34401602 17.51231247 C-17.28608613 11.66176613 -16.95923253 7.87879572 -12.81370449 3.38031673 C-8.65804977 0.23409998 -5.04709815 -0.0468166 0 0 Z M13.18629551 30.38031673 C13.18629551 89.78031673 13.18629551 149.18031673 13.18629551 210.38031673 C151.78629551 210.38031673 290.38629551 210.38031673 433.18629551 210.38031673 C433.18629551 150.98031673 433.18629551 91.58031673 433.18629551 30.38031673 C294.58629551 30.38031673 155.98629551 30.38031673 13.18629551 30.38031673 Z M13.18629551 240.38031673 C13.18629551 250.28031673 13.18629551 260.18031673 13.18629551 270.38031673 C151.78629551 270.38031673 290.38629551 270.38031673 433.18629551 270.38031673 C433.18629551 260.48031673 433.18629551 250.58031673 433.18629551 240.38031673 C294.58629551 240.38031673 155.98629551 240.38031673 13.18629551 240.38031673 Z M87.78395176 399.95844173 C85.15557399 404.11146568 84.57429988 407.57177962 85.18629551 412.38031673 C87.17473668 417.71771147 90.09297199 420.83365497 95.18629551 423.38031673 C100.41222377 423.82319201 104.18021822 423.67555974 108.63942051 420.77094173 C112.08022054 417.67769726 113.90615273 413.91609193 114.41285801 409.32953548 C114.16374984 404.39527746 112.16217097 401.31357289 108.79957676 397.79047298 C105.98757719 395.33252663 103.49102427 394.59189437 99.87379551 394.00531673 C95.20243466 394.65713453 90.96543586 396.37816436 87.78395176 399.95844173 Z M335.37379551 400.06781673 C332.79603635 403.97128061 331.75835122 406.71659729 332.18629551 411.38031673 C333.45720309 415.94893875 335.47218318 419.29892192 339.49879551 421.88031673 C344.6887225 423.99147348 348.12031426 424.14999602 353.37379551 422.19281673 C357.41222894 419.59027075 359.6666933 416.93912337 361.18629551 412.38031673 C361.64811792 407.57736362 361.21286035 404.10489784 358.58863926 399.95844173 C355.41733376 396.38961884 351.19298072 394.71476427 346.56129551 393.94281673 C341.8213887 394.81595746 338.83770005 396.75786351 335.37379551 400.06781673 Z M210.31129551 427.50531673 C208.621453 431.82380316 208.52668568 435.80702193 209.18629551 440.38031673 C211.34928388 444.78640416 213.5831003 447.57906643 218.18629551 449.38031673 C223.22954935 450.06457731 227.01706435 449.95430294 231.62379551 447.69281673 C234.98285563 444.6614698 236.87985182 442.63892025 237.50270176 438.04828548 C237.76843203 432.33079864 237.15476703 428.7778122 233.18629551 424.38031673 C229.34916355 420.99461207 225.55228089 420.86740501 220.62379551 421.02875423 C215.96103405 421.70126791 213.33439258 424.07914005 210.31129551 427.50531673 Z " transform="translate(16.81370449066162,-0.38031673431396484)" style="stroke-width: 4px; stroke-linecap: round; stroke-miterlimit: 7.66; stroke-dasharray: 2; fill-rule: nonzero; paint-order: fill; fill: rgb(240, 173, 68);"/>
  <path d="M0 0 C1.19757634 -0.00843994 2.39515267 -0.01687988 3.6290192 -0.02557558 C4.94106659 -0.01956553 6.25311398 -0.01355549 7.60492039 -0.00736332 C9.01564555 -0.01153627 10.42636735 -0.01701358 11.83708292 -0.02368313 C15.71360753 -0.03816163 19.58991996 -0.03388558 23.46645629 -0.02651632 C27.64718341 -0.02179288 31.82786408 -0.03428717 36.00857639 -0.04453373 C44.19885739 -0.06174319 52.38906174 -0.06255731 60.57935613 -0.05732083 C67.23537247 -0.05328194 73.89136614 -0.05471933 80.5473814 -0.06006908 C81.49414516 -0.06081751 82.44090892 -0.06156593 83.41636248 -0.06233703 C85.33961443 -0.06386848 87.26286637 -0.06540683 89.18611831 -0.066952 C107.22815311 -0.08068477 125.27014457 -0.07523386 143.31217838 -0.06376678 C159.82335879 -0.05383325 176.33442716 -0.06677579 192.84559029 -0.09070098 C209.79371521 -0.11507458 226.74178792 -0.12470415 243.68993002 -0.11804825 C253.20725993 -0.1145522 262.72450365 -0.1168135 272.24182034 -0.13429928 C280.34359894 -0.14899952 288.44523065 -0.14968527 296.5470063 -0.13222837 C300.68144541 -0.12369803 304.81562188 -0.12161817 308.95004749 -0.13687992 C312.7344493 -0.15067679 316.51836223 -0.14602897 320.3027354 -0.12664068 C322.32116339 -0.12107536 324.33961596 -0.13519381 326.35799736 -0.14999479 C337.28348433 -0.06065358 337.28348433 -0.06065358 342.06037998 4.38031673 C345.92084336 8.83667197 345.49167547 13.60985359 345.46443272 19.21601009 C345.47472759 20.69494495 345.47472759 20.69494495 345.48523045 22.20375729 C345.50351526 25.45937197 345.49965843 28.71450552 345.49397373 31.97016048 C345.49853472 34.23550734 345.50384005 36.5008528 345.50985813 38.76619625 C345.51879257 43.5131966 345.51636223 48.26002874 345.5064249 53.00702572 C345.49493515 59.08795067 345.51514563 65.16829494 345.54434204 71.2491436 C345.56269485 75.9271936 345.56241337 80.60510422 345.55670452 85.28318119 C345.55655119 87.52505527 345.56260492 89.76693873 345.57499599 92.00877857 C345.58988625 95.14463174 345.57924259 98.27940916 345.56208897 101.41522884 C345.57175694 102.33957729 345.5814249 103.26392574 345.59138584 104.21628475 C345.52813128 109.74320508 344.88045907 113.08541401 341.06037998 117.38031673 C337.30413398 120.08672276 334.72316745 120.75605169 330.12075996 120.76063347 C328.92318363 120.76907341 327.72560729 120.77751335 326.49174076 120.78620905 C325.17969337 120.780199 323.86764598 120.77418896 322.51583958 120.76799679 C321.10511441 120.77216974 319.69439261 120.77764705 318.28367704 120.7843166 C314.40715244 120.7987951 310.53084001 120.79451905 306.65430367 120.78714979 C302.47357655 120.78242635 298.29289588 120.79492064 294.11218357 120.8051672 C285.92190257 120.82237666 277.73169822 120.82319078 269.54140384 120.81795429 C262.88538749 120.81391541 256.22939382 120.8153528 249.57337856 120.82070255 C248.15323293 120.82182519 248.15323293 120.82182519 246.70439748 120.8229705 C244.78114553 120.82450195 242.85789359 120.8260403 240.93464165 120.82758547 C222.89260685 120.84131824 204.8506154 120.83586733 186.80858158 120.82440025 C170.29740117 120.81446671 153.78633281 120.82740925 137.27516968 120.85133445 C120.32704475 120.87570805 103.37897205 120.88533762 86.43082994 120.87868172 C76.91350003 120.87518567 67.39625631 120.87744697 57.87893963 120.89493275 C49.77716103 120.90963299 41.67552931 120.91031874 33.57375366 120.89286184 C29.43931456 120.8843315 25.30513809 120.88225163 21.17071247 120.89751339 C17.38631066 120.91131026 13.60239773 120.90666244 9.81802457 120.88727415 C7.79959657 120.88170882 5.781144 120.89582728 3.76276261 120.91062826 C-7.16272437 120.82128705 -7.16272437 120.82128705 -11.93962002 116.38031673 C-15.80008339 111.9239615 -15.37091551 107.15077988 -15.34367275 101.54462337 C-15.350536 100.5586668 -15.35739925 99.57271023 -15.36447048 98.55687618 C-15.3827553 95.3012615 -15.37889847 92.04612794 -15.37321377 88.79047298 C-15.37777476 86.52512613 -15.38308008 84.25978067 -15.38909817 81.99443722 C-15.3980326 77.24743687 -15.39560227 72.50060472 -15.38566494 67.75360775 C-15.37417519 61.6726828 -15.39438567 55.59233853 -15.42358208 49.51148987 C-15.44193489 44.83343987 -15.4416534 40.15552925 -15.43594456 35.47745228 C-15.43579123 33.2355782 -15.44184496 30.99369474 -15.45423603 28.7518549 C-15.46912629 25.61600173 -15.45848262 22.48122431 -15.441329 19.34540462 C-15.45099697 18.42105618 -15.46066494 17.49670773 -15.47062588 16.54434872 C-15.40737131 11.01742839 -14.7596991 7.67521946 -10.93962002 3.38031673 C-7.18337402 0.67391071 -4.60240749 0.00458178 0 0 Z M15.06037998 30.38031673 C15.06037998 50.18031673 15.06037998 69.98031673 15.06037998 90.38031673 C47.07037998 90.38031673 79.08037998 90.38031673 112.06037998 90.38031673 C110.61326376 86.01981546 110.61326376 86.01981546 108.99006748 81.72406673 C103.60089962 67.19327339 104.3074393 50.65768776 110.06037998 36.38031673 C110.72037998 34.40031673 111.38037998 32.42031673 112.06037998 30.38031673 C80.05037998 30.38031673 48.04037998 30.38031673 15.06037998 30.38031673 Z M218.06037998 30.38031673 C219.5074962 34.74081801 219.5074962 34.74081801 221.13069248 39.03656673 C226.51986034 53.56736007 225.81332066 70.10294571 220.06037998 84.38031673 C219.40037998 86.36031673 218.74037998 88.34031673 218.06037998 90.38031673 C250.07037998 90.38031673 282.08037998 90.38031673 315.06037998 90.38031673 C315.06037998 70.58031673 315.06037998 50.78031673 315.06037998 30.38031673 C283.05037998 30.38031673 251.04037998 30.38031673 218.06037998 30.38031673 Z M145.81037998 37.64203548 C139.11285679 44.29470919 135.79313929 50.5914626 135.68537998 60.19281673 C135.83354596 68.99017155 138.35722715 75.31403939 144.27912998 81.81000423 C151.56125214 88.22976982 159.01772971 89.75112589 168.48225498 89.65375423 C176.92909061 89.00825369 183.48716968 84.63441698 189.06037998 78.38031673 C194.15143236 70.37588756 194.77650337 62.75130279 194.06037998 53.38031673 C192.24639797 45.99325747 187.3828002 39.46645151 181.21662998 35.06391048 C169.66966694 28.65156011 156.099092 29.00380435 145.81037998 37.64203548 Z " transform="translate(74.93962001800537,59.619683265686035)" style="fill: rgb(240, 173, 68);"/>
  <path d="M 1220.938 156.563 C 1222.079 156.571 1223.221 156.579 1224.397 156.588 C 1238.057 156.862 1250.132 160.118 1260.098 170.102 C 1267.641 179.167 1269.541 187.362 1269 199 C 1264.05 199 1259.1 199 1254 199 C 1253.814 197.185 1253.629 195.37 1253.438 193.5 C 1252.318 186.944 1250.202 183.137 1245 179 C 1234.388 172.153 1222.399 170.431 1210.004 172.5 C 1201.822 174.497 1194.746 177.786 1190 185 C 1188.349 189.952 1188.41 194.252 1190.438 199.063 C 1195.375 207.881 1205.45 210.7 1214.606 213.353 C 1218.322 214.358 1222.066 215.238 1225.81 216.129 C 1258.052 223.823 1258.052 223.823 1266.547 236.266 C 1271.421 244.534 1272.472 253.581 1270.316 262.98 C 1267.17 272.447 1262.357 277.773 1253.727 282.648 C 1236.795 291.041 1215.096 292.071 1197.129 286.266 C 1183.52 280.761 1175.12 273.948 1168.871 260.586 C 1167.278 255.857 1167.327 250.955 1167 246 C 1172.28 246 1177.56 246 1183 246 C 1183.371 247.815 1183.743 249.63 1184.125 251.5 C 1185.969 258.688 1188.351 263.465 1194.52 267.75 C 1206.91 274.959 1221.792 275.965 1235.754 273.277 C 1242.79 271.102 1247.867 268.457 1251.813 262.063 C 1254.11 256.138 1254.369 252.11 1252.117 246.172 C 1247.943 238.058 1239.097 235.784 1231 233 C 1226.439 231.659 1221.853 230.439 1217.255 229.235 C 1183.273 220.242 1183.273 220.242 1175 207 C 1170.715 199.033 1170.681 188.864 1173 180.25 C 1176.799 170.735 1184.807 164.792 1193.971 160.757 C 1202.862 157.44 1211.502 156.474 1220.938 156.563 Z" style="fill: rgb(240, 174, 69);"/>
  <path d="M 605.938 156.563 C 607.079 156.571 608.221 156.579 609.397 156.588 C 623.057 156.862 635.132 160.118 645.098 170.102 C 652.641 179.167 654.541 187.362 654 199 C 649.05 199 644.1 199 639 199 C 638.814 197.185 638.629 195.37 638.438 193.5 C 637.318 186.944 635.202 183.137 630 179 C 619.388 172.153 607.399 170.431 595.004 172.5 C 586.822 174.497 579.746 177.786 575 185 C 573.349 189.952 573.41 194.252 575.438 199.063 C 580.375 207.881 590.45 210.7 599.606 213.353 C 603.322 214.358 607.066 215.238 610.81 216.129 C 643.052 223.823 643.052 223.823 651.547 236.266 C 656.421 244.534 657.472 253.581 655.316 262.98 C 652.17 272.447 647.357 277.773 638.727 282.648 C 621.795 291.041 600.096 292.071 582.129 286.266 C 568.52 280.761 560.12 273.948 553.871 260.586 C 552.278 255.857 552.327 250.955 552 246 C 557.28 246 562.56 246 568 246 C 568.371 247.815 568.743 249.63 569.125 251.5 C 570.969 258.688 573.35 263.465 579.52 267.75 C 591.91 274.959 606.792 275.965 620.754 273.277 C 627.79 271.102 632.867 268.457 636.813 262.063 C 639.11 256.138 639.369 252.11 637.117 246.172 C 632.943 238.058 624.097 235.784 616 233 C 611.439 231.659 606.853 230.439 602.255 229.235 C 568.273 220.242 568.273 220.242 560 207 C 555.715 199.033 555.681 188.864 558 180.25 C 561.799 170.735 569.807 164.792 578.97 160.757 C 587.862 157.44 596.502 156.474 605.938 156.563 Z" style="fill: rgb(240, 174, 69);"/>
  <path d="M 958.375 192.563 C 959.631 192.576 959.631 192.576 960.912 192.59 C 972.195 192.906 979.224 196.838 987 205 C 987.99 206.485 987.99 206.485 989 208 C 989.33 203.38 989.66 198.76 990 194 C 995.28 194 1000.56 194 1006 194 C 1006 224.36 1006 254.72 1006 286 C 1001.71 286 997.42 286 993 286 C 992.01 281.38 991.02 276.76 990 272 C 988.701 273.547 987.401 275.094 986.063 276.688 C 980.605 282.764 974.409 287.474 966.036 288.161 C 944.927 288.594 944.927 288.594 935.75 280.813 C 924.987 270.399 921.927 258.447 921.525 243.779 C 921.404 227.996 922.779 213.7 934.106 201.785 C 941.502 194.745 948.244 192.432 958.375 192.563 Z M 945 214 C 937.656 223.999 936.179 234.803 937 247 C 938.407 255.965 941.089 263.745 948 269.875 C 955.424 275.133 963.273 274.691 972 274 C 978.252 272.439 982.548 268.329 986 263 C 991.686 251.317 991.84 236.021 988.313 223.688 C 985.432 215.75 981.556 211.709 974 208 C 964.302 204.975 952.239 206.56 945 214 Z" style="fill: rgb(240, 174, 69);"/>
  <path d="M 1595.219 199.355 C 1604.329 205.695 1610.521 214.599 1613.313 225.375 C 1614 230 1614 230 1614 242 C 1590.57 242 1567.14 242 1543 242 C 1545.018 255.732 1545.018 255.732 1551 266 C 1551.33 266.99 1551.66 267.98 1552 269 C 1553.646 270.119 1553.646 270.119 1556 271 C 1557.073 271.536 1558.145 272.073 1559.25 272.625 C 1566.941 275.439 1577.62 275.436 1585.188 272.313 C 1592.656 268.217 1595.498 262.504 1599 255 C 1603.95 255 1608.9 255 1614 255 C 1612.664 264.352 1609.27 272.993 1602.109 279.473 C 1589.849 288.35 1576.579 290.656 1561.75 288.535 C 1554.794 287.036 1549.495 284.499 1544 280 C 1542.95 279.153 1542.95 279.153 1541.879 278.289 C 1533.219 270.529 1528.876 259.144 1527.781 247.711 C 1526.947 231.346 1529.873 216.789 1541.125 204.25 C 1554.907 191.239 1579.333 189.65 1595.219 199.355 Z M 1550.625 215.25 C 1546.482 220.626 1544.321 226.394 1543 233 C 1561.15 233 1579.3 233 1598 233 C 1596.711 222.691 1594.126 216.578 1586 210 C 1574.985 202.886 1559.347 205.965 1550.625 215.25 Z" style="fill: rgb(240, 174, 69);"/>
  <path d="M 1354.281 199.355 C 1364.261 206.3 1369.82 215.985 1372.607 227.753 C 1375.103 242.036 1373.927 258.34 1366.313 270.875 C 1359.563 279.982 1351.215 286.032 1340 288 C 1336.44 288.236 1332.88 288.231 1329.313 288.25 C 1327.898 288.281 1327.898 288.281 1326.455 288.313 C 1314.694 288.377 1305.387 285.024 1296.801 276.926 C 1287.191 266.748 1284.643 255.356 1284.688 241.688 C 1284.663 240.234 1284.663 240.234 1284.639 238.752 C 1284.63 226.342 1288.099 213.934 1296.688 204.688 C 1311.173 191.159 1337.432 189.344 1354.281 199.355 Z M 1307.277 214.719 C 1299.202 224.402 1298.953 236.973 1300 249 C 1301.468 258.052 1304.829 264.862 1312.031 270.676 C 1318.966 275.34 1326.858 275.905 1335 275 C 1342.053 273.523 1347.099 271.011 1351.566 265.289 C 1353.992 261.416 1355.625 257.346 1357 253 C 1357.192 252.395 1357.384 251.791 1357.582 251.168 C 1359.759 239.876 1358.224 227.609 1352.645 217.559 C 1348.24 211.146 1343.327 208.361 1335.813 206.75 C 1325.195 204.81 1315.01 207.004 1307.277 214.719 Z" style="fill: rgb(240, 174, 69);"/>
  <path d="M 1685 194 C 1690.28 194 1695.56 194 1701 194 C 1704.331 201.953 1707.598 209.926 1710.793 217.934 C 1711.441 219.555 1711.441 219.555 1712.102 221.209 C 1713.465 224.618 1714.826 228.028 1716.188 231.438 C 1717.111 233.749 1718.035 236.061 1718.959 238.373 C 1720.985 243.442 1723.01 248.512 1725.034 253.581 C 1726.022 256.055 1727.011 258.527 1728 261 C 1730.631 258.369 1731.672 255.337 1733.055 251.949 C 1733.353 251.231 1733.651 250.512 1733.958 249.772 C 1734.935 247.412 1735.905 245.05 1736.875 242.688 C 1737.546 241.064 1738.217 239.441 1738.889 237.817 C 1740.259 234.504 1741.627 231.19 1742.992 227.875 C 1744.875 223.301 1746.766 218.73 1748.66 214.16 C 1751.444 207.442 1754.224 200.722 1757 194 C 1762.61 194 1768.22 194 1774 194 C 1771.668 201.633 1768.481 208.672 1765.063 215.875 C 1763.877 218.397 1762.696 220.921 1761.516 223.445 C 1761.217 224.083 1760.919 224.721 1760.612 225.377 C 1757.768 231.468 1755.028 237.602 1752.313 243.75 C 1747.571 254.474 1742.796 265.182 1737.99 275.878 C 1737.221 277.59 1736.453 279.303 1735.685 281.016 C 1733.512 285.867 1731.324 290.711 1729.117 295.547 C 1728.353 297.225 1727.593 298.904 1726.836 300.585 C 1725.677 303.156 1724.503 305.719 1723.324 308.281 C 1722.979 309.054 1722.634 309.826 1722.279 310.621 C 1719.419 316.773 1715.885 321.89 1710.367 325.926 C 1705.293 327.545 1700.413 327.314 1695.125 327.188 C 1694.055 327.174 1692.985 327.16 1691.883 327.146 C 1689.255 327.111 1686.628 327.058 1684 327 C 1684 323.04 1684 319.08 1684 315 C 1685.241 314.914 1686.483 314.827 1687.762 314.738 C 1689.404 314.598 1691.046 314.456 1692.688 314.313 C 1693.913 314.232 1693.913 314.232 1695.162 314.15 C 1699.001 313.793 1701.45 313.371 1704.684 311.188 C 1708.218 306.323 1710.778 301.098 1713.375 295.688 C 1713.933 294.585 1714.491 293.482 1715.066 292.346 C 1715.589 291.266 1716.111 290.187 1716.649 289.074 C 1717.125 288.101 1717.601 287.127 1718.091 286.124 C 1720.114 279.17 1717.558 273.157 1714.746 266.84 C 1714.413 266.068 1714.08 265.297 1713.737 264.502 C 1713.019 262.841 1712.297 261.182 1711.571 259.524 C 1709.63 255.094 1707.724 250.65 1705.813 246.207 C 1705.418 245.292 1705.023 244.376 1704.616 243.433 C 1700.652 234.234 1696.807 224.987 1693.004 215.721 C 1692.294 213.992 1691.582 212.264 1690.869 210.537 C 1689.876 208.133 1688.889 205.727 1687.902 203.32 C 1687.606 202.605 1687.31 201.889 1687.005 201.151 C 1685 196.23 1685 196.23 1685 194 Z" style="fill: rgb(240, 174, 69);"/>
  <path d="M 664 194 C 669.28 194 674.56 194 680 194 C 683.331 201.953 686.598 209.926 689.793 217.934 C 690.441 219.555 690.441 219.555 691.102 221.209 C 692.465 224.618 693.826 228.028 695.188 231.438 C 696.111 233.749 697.035 236.061 697.959 238.373 C 699.985 243.442 702.01 248.512 704.034 253.581 C 705.022 256.055 706.011 258.527 707 261 C 709.631 258.369 710.672 255.337 712.055 251.949 C 712.353 251.231 712.651 250.512 712.958 249.772 C 713.935 247.412 714.905 245.05 715.875 242.688 C 716.546 241.064 717.217 239.441 717.889 237.817 C 719.259 234.504 720.627 231.19 721.992 227.875 C 723.875 223.301 725.766 218.73 727.66 214.16 C 730.444 207.442 733.224 200.722 736 194 C 741.61 194 747.22 194 753 194 C 750.668 201.633 747.481 208.672 744.063 215.875 C 742.877 218.397 741.696 220.921 740.516 223.445 C 740.217 224.083 739.919 224.721 739.612 225.377 C 736.768 231.468 734.028 237.602 731.313 243.75 C 726.571 254.474 721.796 265.182 716.99 275.878 C 716.221 277.59 715.453 279.303 714.685 281.016 C 712.511 285.867 710.324 290.711 708.117 295.547 C 707.353 297.225 706.593 298.904 705.836 300.585 C 704.677 303.156 703.502 305.719 702.324 308.281 C 701.979 309.054 701.634 309.826 701.279 310.621 C 698.419 316.773 694.885 321.89 689.367 325.926 C 684.293 327.545 679.413 327.314 674.125 327.188 C 673.055 327.174 671.985 327.16 670.883 327.146 C 668.255 327.111 665.627 327.058 663 327 C 663 323.04 663 319.08 663 315 C 664.241 314.914 665.483 314.827 666.762 314.738 C 668.404 314.598 670.046 314.456 671.688 314.313 C 672.912 314.232 672.912 314.232 674.162 314.15 C 678.001 313.793 680.45 313.371 683.684 311.188 C 687.218 306.323 689.778 301.098 692.375 295.688 C 692.933 294.585 693.491 293.482 694.066 292.346 C 694.589 291.266 695.111 290.187 695.648 289.074 C 696.125 288.101 696.601 287.127 697.091 286.124 C 699.114 279.17 696.557 273.157 693.746 266.84 C 693.413 266.068 693.08 265.297 692.737 264.502 C 692.019 262.841 691.297 261.182 690.571 259.524 C 688.63 255.094 686.724 250.65 684.813 246.207 C 684.418 245.292 684.022 244.376 683.615 243.433 C 679.652 234.234 675.807 224.987 672.003 215.721 C 671.294 213.992 670.582 212.264 669.869 210.537 C 668.876 208.133 667.889 205.727 666.902 203.32 C 666.606 202.605 666.31 201.889 666.005 201.151 C 664 196.23 664 196.23 664 194 Z" style="fill: rgb(240, 174, 69);"/>
  <path d="M 764 194 C 768.29 194 772.58 194 777 194 C 778.5 195.5 778.316 196.947 778.535 199.035 C 778.622 199.844 778.709 200.653 778.799 201.486 C 778.886 202.336 778.973 203.187 779.063 204.063 C 779.153 204.917 779.244 205.771 779.338 206.65 C 779.563 208.767 779.782 210.883 780 213 C 780.413 212.348 780.825 211.695 781.25 211.023 C 786.942 202.41 792.812 196.75 803 194 C 806.304 193.577 809.547 193.523 812.875 193.563 C 814.197 193.572 814.197 193.572 815.545 193.581 C 822.011 193.737 827.393 194.581 833 198 C 834.361 198.804 834.361 198.804 835.75 199.625 C 846.351 210.815 847.473 224.861 847.293 239.613 C 847.287 240.962 847.283 242.311 847.28 243.66 C 847.269 247.164 847.239 250.667 847.206 254.17 C 847.175 257.764 847.162 261.357 847.147 264.951 C 847.115 271.968 847.062 278.984 847 286 C 842.05 286 837.1 286 832 286 C 831.985 284.326 831.971 282.651 831.956 280.926 C 831.904 275.358 831.839 269.79 831.764 264.223 C 831.72 260.851 831.681 257.479 831.654 254.107 C 831.62 250.22 831.568 246.333 831.512 242.445 C 831.505 241.25 831.499 240.055 831.492 238.824 C 831.33 229.453 830.001 221.331 824.672 213.473 C 819.855 209.23 814.273 208.467 808.063 208.563 C 807.358 208.572 806.654 208.581 805.928 208.59 C 797.889 208.858 793.642 211.025 788.188 216.75 C 780.966 225.6 780.853 235.759 780.684 246.742 C 780.663 247.866 780.642 248.989 780.621 250.147 C 780.555 253.723 780.496 257.299 780.438 260.875 C 780.394 263.305 780.351 265.734 780.307 268.164 C 780.2 274.109 780.098 280.055 780 286 C 774.72 286 769.44 286 764 286 C 764 255.64 764 225.28 764 194 Z" style="fill: rgb(240, 174, 69);"/>
  <path d="M 1455 198 C 1455.794 198.436 1456.588 198.871 1457.406 199.32 C 1465.908 204.506 1471.908 211.485 1475 221 C 1475.513 223.363 1475.794 225.583 1476 228 C 1471.38 228 1466.76 228 1462 228 C 1461.175 226.309 1460.35 224.618 1459.5 222.875 C 1455.601 215.713 1450.71 211.627 1443 209 C 1433.471 207.319 1424.428 207.289 1416.234 212.891 C 1409.42 218.589 1405.927 224.414 1404 233 C 1403.287 244.904 1403.161 255.09 1410.813 264.875 C 1416.413 270.886 1422.702 273.063 1430.788 273.395 C 1439.657 273.566 1446.736 272.643 1454 267 C 1457.641 262.946 1459.679 259.283 1461 254 C 1465.95 254 1470.9 254 1476 254 C 1473.932 264.988 1469.957 273.34 1461.063 280.438 C 1448.782 288.712 1435.498 290.147 1421 288 C 1409.4 285.163 1399.998 278.932 1393.629 268.824 C 1385.935 254.875 1385.523 239.236 1389.625 224.125 C 1391.747 217.936 1394.829 213.011 1399 208 C 1399.547 207.341 1400.093 206.683 1400.656 206.004 C 1413.254 192.188 1438.783 189.059 1455 198 Z" style="fill: rgb(240, 174, 69);"/>
  <path d="M 1017 194 C 1032.388 192.039 1032.388 192.039 1037.965 196.227 C 1040.092 199.022 1041.933 201.793 1043.693 204.824 C 1045.739 208.23 1048.041 211.452 1050.313 214.71 C 1052.915 218.447 1055.458 222.222 1058 226 C 1061.471 224.843 1061.866 224.128 1063.82 221.168 C 1064.615 219.977 1064.615 219.977 1065.427 218.763 C 1065.987 217.913 1066.548 217.063 1067.125 216.188 C 1068.311 214.456 1069.497 212.724 1070.684 210.992 C 1072.658 208.073 1074.517 205.153 1076.223 202.07 C 1078.281 198.658 1079.775 196.357 1083 194 C 1088.945 192.65 1095.005 193.302 1101 194 C 1097.097 199.94 1093.064 205.758 1088.875 211.5 C 1082.502 220.277 1076.235 229.125 1070 238 C 1072.782 243.106 1075.882 247.658 1079.438 252.25 C 1087.765 263.17 1095.402 274.566 1103 286 C 1100.141 286.245 1097.302 286.422 1094.438 286.563 C 1093.638 286.638 1092.838 286.713 1092.014 286.791 C 1088.349 286.926 1085.971 286.849 1083.14 284.374 C 1081.266 281.999 1079.632 279.547 1078 277 C 1076.633 275.062 1075.262 273.127 1073.887 271.195 C 1072.484 269.174 1071.085 267.15 1069.688 265.125 C 1068.973 264.094 1068.258 263.063 1067.522 262 C 1064.992 258.348 1062.465 254.697 1060 251 C 1059.34 251 1058.68 251 1058 251 C 1056.321 253.018 1056.321 253.018 1054.586 255.645 C 1053.567 257.127 1053.567 257.127 1052.527 258.639 C 1051.817 259.686 1051.107 260.733 1050.375 261.813 C 1048.988 263.841 1047.6 265.868 1046.211 267.895 C 1045.522 268.9 1044.834 269.905 1044.124 270.94 C 1035.193 283.808 1035.193 283.808 1033 286 C 1030.137 286.073 1027.299 286.092 1024.438 286.063 C 1023.631 286.058 1022.825 286.053 1021.994 286.049 C 1019.996 286.037 1017.998 286.019 1016 286 C 1017.81 281.963 1020.36 278.43 1022.875 274.813 C 1023.357 274.116 1023.839 273.419 1024.335 272.701 C 1029.397 265.394 1034.531 258.138 1039.668 250.884 C 1042.461 246.934 1045.231 242.968 1048 239 C 1045.044 233.592 1041.708 228.652 1038.063 223.688 C 1036.913 222.108 1035.763 220.529 1034.613 218.949 C 1033.727 217.736 1033.727 217.736 1032.823 216.498 C 1029.788 212.339 1026.768 208.17 1023.75 204 C 1023.189 203.229 1022.629 202.457 1022.051 201.663 C 1021.534 200.949 1021.017 200.235 1020.484 199.5 C 1019.799 198.556 1019.799 198.556 1019.101 197.594 C 1018 196 1018 196 1017 194 Z" style="fill: rgb(240, 174, 69);"/>
  <path d="M 1641 170 C 1645.29 170 1649.58 170 1654 170 C 1654 177.92 1654 185.84 1654 194 C 1660.93 194 1667.86 194 1675 194 C 1675 197.63 1675 201.26 1675 205 C 1668.07 205 1661.14 205 1654 205 C 1654 227.77 1654 250.54 1654 274 C 1660.93 274 1667.86 274 1675 274 C 1675 277.96 1675 281.92 1675 286 C 1670.624 286.108 1666.251 286.187 1661.875 286.25 C 1660.638 286.284 1659.4 286.317 1658.125 286.352 C 1653.049 286.406 1649.048 286.432 1644.32 284.484 C 1637.462 277.141 1638.606 267.502 1638.707 258.125 C 1638.713 256.589 1638.717 255.054 1638.72 253.518 C 1638.731 249.5 1638.761 245.483 1638.794 241.465 C 1638.825 237.356 1638.839 233.246 1638.854 229.137 C 1638.886 221.091 1638.938 213.046 1639 205 C 1634.38 205 1629.76 205 1625 205 C 1624.902 196.504 1624.902 196.504 1625 194 C 1626.862 192.138 1630.143 192.696 1632.676 192.574 C 1635.974 191.759 1637.035 190.791 1639 188 C 1639.758 184.94 1640.015 181.889 1640.25 178.75 C 1640.327 177.91 1640.405 177.069 1640.484 176.203 C 1640.672 174.137 1640.838 172.069 1641 170 Z" style="fill: rgb(240, 174, 69);"/>
  <path d="M 874 170 C 878.29 170 882.58 170 887 170 C 887 177.92 887 185.84 887 194 C 893.93 194 900.86 194 908 194 C 908 197.63 908 201.26 908 205 C 901.07 205 894.14 205 887 205 C 887 227.77 887 250.54 887 274 C 893.93 274 900.86 274 908 274 C 908 277.96 908 281.92 908 286 C 903.624 286.108 899.251 286.187 894.875 286.25 C 893.638 286.284 892.4 286.317 891.125 286.352 C 886.049 286.406 882.048 286.432 877.32 284.484 C 870.462 277.141 871.606 267.502 871.707 258.125 C 871.713 256.589 871.717 255.054 871.72 253.518 C 871.731 249.5 871.761 245.483 871.794 241.465 C 871.825 237.356 871.838 233.246 871.854 229.137 C 871.886 221.091 871.938 213.046 872 205 C 867.38 205 862.76 205 858 205 C 857.902 196.504 857.902 196.504 858 194 C 859.862 192.138 863.143 192.696 865.676 192.574 C 868.974 191.759 870.035 190.791 872 188 C 872.758 184.94 873.015 181.889 873.25 178.75 C 873.327 177.91 873.405 177.069 873.484 176.203 C 873.672 174.137 873.838 172.069 874 170 Z" style="fill: rgb(240, 174, 69);"/>
  <path d="M 1495 194 C 1500.28 194 1505.56 194 1511 194 C 1511 224.36 1511 254.72 1511 286 C 1505.72 286 1500.44 286 1495 286 C 1495 255.64 1495 225.28 1495 194 Z" style="fill: rgb(240, 174, 69);"/>
  <path d="M 1509 161 C 1511.509 162.901 1511.98 163.941 1513 167 C 1513.373 172.033 1513.01 174.907 1510 179 C 1508.277 180.723 1506.033 180.213 1503.688 180.25 C 1502.722 180.276 1501.757 180.302 1500.762 180.328 C 1497.578 179.95 1496.273 179.226 1494 177 C 1492.754 173.261 1492.374 169.877 1493 166 C 1496.679 159.911 1502.475 159.788 1509 161 Z" style="fill: rgb(255, 255, 255);"/>
  <ellipse style="stroke: rgba(0, 0, 0, 0); fill: rgb(255, 255, 255);" cx="241.395" cy="119.828" rx="31.494" ry="30.612"/>
</svg>