<?xml version="1.0" encoding="utf-8"?>
<svg version="1.1" xmlns="http://www.w3.org/2000/svg" width="1000" height="1000" xmlns:bx="https://boxy-svg.com">
  <defs>
    <linearGradient id="gradient-1" bx:pinned="true"/>
  </defs>
  <path d="M 29.158 -13.536 C 31.171 -13.548 31.171 -13.548 33.224 -13.56 C 37.738 -13.581 42.252 -13.564 46.765 -13.548 C 50.027 -13.556 53.29 -13.565 56.552 -13.576 C 65.529 -13.601 74.506 -13.594 83.484 -13.581 C 93.16 -13.573 102.837 -13.595 112.513 -13.612 C 131.476 -13.642 150.438 -13.643 169.4 -13.634 C 184.808 -13.627 200.216 -13.63 215.625 -13.639 C 218.911 -13.641 218.911 -13.641 222.263 -13.643 C 226.713 -13.645 231.163 -13.648 235.613 -13.65 C 265.503 -13.667 295.393 -13.674 325.282 -13.661 C 327.036 -13.661 327.036 -13.661 328.825 -13.66 C 338.32 -13.656 347.814 -13.651 357.308 -13.647 C 394.346 -13.629 431.383 -13.644 468.421 -13.683 C 510.022 -13.728 551.624 -13.75 593.225 -13.738 C 615.256 -13.732 637.287 -13.736 659.319 -13.766 C 678.073 -13.791 696.827 -13.792 715.581 -13.762 C 725.154 -13.748 734.727 -13.744 744.3 -13.77 C 753.058 -13.794 761.816 -13.786 770.574 -13.753 C 773.748 -13.746 776.921 -13.751 780.094 -13.769 C 784.4 -13.792 788.703 -13.772 793.008 -13.742 C 794.248 -13.758 795.487 -13.775 796.764 -13.792 C 805.373 -13.667 810.2 -11.376 816.869 -6.038 C 824.043 1.892 822.724 11.71 822.668 21.806 C 822.682 24.763 822.682 24.763 822.696 27.779 C 822.716 33.244 822.713 38.708 822.701 44.173 C 822.692 50.069 822.714 55.965 822.731 61.861 C 822.761 73.409 822.762 84.957 822.753 96.505 C 822.746 105.891 822.749 115.277 822.758 124.662 C 822.759 125.998 822.761 127.334 822.762 128.71 C 822.764 131.423 822.767 134.136 822.77 136.849 C 822.793 162.295 822.784 187.742 822.764 213.188 C 822.747 236.469 822.769 259.751 822.81 283.032 C 822.852 306.936 822.869 330.84 822.857 354.744 C 822.851 368.165 822.855 381.586 822.885 395.007 C 822.91 406.432 822.911 417.856 822.882 429.281 C 822.867 435.11 822.863 440.939 822.889 446.768 C 822.912 453.087 822.892 459.404 822.862 465.723 C 822.879 467.566 822.895 469.408 822.912 471.307 C 822.813 481.321 822.253 487.797 815.157 495.497 C 808.613 500.672 803.668 501.269 795.432 501.249 C 793.173 501.256 790.915 501.263 788.588 501.271 C 786.097 501.253 783.606 501.234 781.115 501.215 C 778.483 501.213 775.851 501.214 773.218 501.217 C 766.082 501.219 758.946 501.188 751.81 501.153 C 744.349 501.12 736.888 501.117 729.426 501.111 C 715.302 501.095 701.177 501.053 687.052 501.002 C 670.97 500.944 654.888 500.916 638.806 500.89 C 605.727 500.837 572.649 500.746 539.57 500.632 C 539.572 509.585 539.639 518.535 539.762 527.487 C 539.796 530.526 539.812 533.565 539.81 536.603 C 539.814 555.923 539.924 571.435 554.315 585.946 C 556.345 587.807 558.435 589.606 560.572 591.344 C 563.972 594.123 567.034 597.104 570.15 600.196 C 578.09 607.647 584.571 613.557 595.803 613.674 C 601.842 612.373 607.36 610.53 613.174 608.47 C 634.876 606.099 655.344 612.265 672.402 625.661 C 689.737 640.516 698.737 656.85 701.134 679.875 C 701.899 705.436 694.188 725.282 677.15 744.017 C 660.098 760.383 639.231 765.151 616.397 764.765 C 594.626 763.035 577.938 753.713 562.999 738.133 C 549.498 722.096 544.216 702.931 544.157 682.301 C 544.705 676.939 544.705 676.939 546.851 671.752 C 549.536 664.867 550.487 660.384 549.84 652.975 C 543.237 641.374 532.028 632.606 522.239 623.769 C 518.213 620.004 514.208 616.219 510.206 612.429 C 507.716 610.084 505.208 607.759 502.679 605.456 C 493.486 597.017 487.733 590.509 486.507 577.659 C 486.302 571.706 486.307 565.763 486.339 559.807 C 486.343 557.264 486.343 557.264 486.347 554.67 C 486.356 549.281 486.378 543.892 486.4 538.504 C 486.408 534.84 486.416 531.175 486.423 527.511 C 486.44 518.551 486.474 509.592 486.507 500.632 C 470.125 500.632 453.744 500.632 436.867 500.632 C 437.432 552.6 437.996 604.568 438.578 658.11 C 444.227 660.935 449.876 663.759 455.696 666.669 C 472.311 678.257 483.764 694.791 488.218 714.597 C 490.734 738.474 488.412 759.726 473.883 779.536 C 461.489 794.115 444.271 807.121 424.587 809.12 C 398.373 810.378 378.798 807.15 358.127 789.913 C 342.461 775.521 334.721 757.378 332.666 736.395 C 331.908 713.776 338.844 695.268 353.42 678.009 C 360.782 670.273 368.875 664.171 378.668 659.822 C 380.363 659.822 382.057 659.822 383.803 659.822 C 383.803 607.289 383.803 554.756 383.803 500.632 C 367.422 500.632 351.041 500.632 334.163 500.632 C 334.342 509.846 334.342 509.846 334.524 519.247 C 334.605 525.224 334.667 531.2 334.727 537.177 C 334.779 541.318 334.849 545.459 334.938 549.599 C 335.063 555.565 335.121 561.529 335.166 567.496 C 335.219 569.335 335.272 571.174 335.327 573.068 C 335.333 587.732 331.021 594.422 320.95 604.597 C 317.853 607.588 314.677 610.471 311.476 613.351 C 309.142 615.534 306.812 617.72 304.486 619.911 C 300.867 623.308 297.234 626.676 293.53 629.98 C 278.536 642.382 278.536 642.382 272.125 659.622 C 273.465 665.729 275.406 671.129 277.676 676.939 C 280.128 698.601 273.846 719.154 260.486 736.168 C 245.631 753.502 229.297 762.502 206.272 764.899 C 180.711 765.664 160.865 757.953 142.129 740.915 C 127.303 725.496 121.173 705.235 121.287 684.253 C 121.888 660.96 131.367 642.726 148.013 626.764 C 163.992 613.313 183.241 607.871 203.83 607.954 C 209.208 608.47 209.208 608.47 214.53 610.334 C 221.842 612.851 228.833 615.256 236.388 612.382 C 243.618 608.3 249.494 602.912 255.363 597.089 C 258.471 594.081 261.729 591.41 265.083 588.682 C 275.953 578.713 281.415 568.882 282.289 554.071 C 282.534 546.742 282.573 539.423 282.569 532.091 C 282.602 529.035 282.64 525.979 282.682 522.923 C 282.775 515.492 282.81 508.063 282.812 500.632 C 281.445 500.638 280.078 500.644 278.67 500.651 C 245.412 500.802 212.154 500.915 178.895 500.987 C 162.812 501.022 146.728 501.07 130.645 501.148 C 116.626 501.217 102.608 501.261 88.589 501.276 C 81.166 501.285 73.744 501.306 66.321 501.356 C 59.333 501.402 52.345 501.417 45.357 501.406 C 42.794 501.408 40.231 501.422 37.669 501.448 C 34.163 501.482 30.661 501.474 27.155 501.455 C 25.196 501.462 23.236 501.468 21.217 501.474 C 12.923 500.188 7.907 496.432 2.345 490.283 C -0.767 482.284 -0.334 474.448 -0.286 465.941 C -0.295 463.97 -0.305 461.998 -0.314 459.967 C -0.334 454.503 -0.332 449.039 -0.319 443.574 C -0.311 437.678 -0.332 431.782 -0.35 425.886 C -0.379 414.338 -0.381 402.79 -0.372 391.242 C -0.365 381.856 -0.367 372.47 -0.376 363.085 C -0.378 361.749 -0.379 360.413 -0.38 359.037 C -0.383 356.324 -0.386 353.611 -0.388 350.898 C -0.412 325.452 -0.402 300.005 -0.383 274.559 C -0.366 251.277 -0.388 227.996 -0.429 204.715 C -0.471 180.811 -0.487 156.907 -0.476 133.003 C -0.47 119.582 -0.473 106.161 -0.503 92.74 C -0.529 81.315 -0.53 69.891 -0.5 58.466 C -0.485 52.637 -0.482 46.808 -0.508 40.979 C -0.53 34.66 -0.511 28.343 -0.48 22.023 C -0.497 20.181 -0.513 18.339 -0.53 16.44 C -0.431 6.426 0.128 -0.05 7.224 -7.75 C 14.338 -13.135 20.519 -13.616 29.158 -13.536 Z M 51.729 38.467 C 51.729 140.143 51.729 241.819 51.729 346.577 C 288.974 346.577 526.219 346.577 770.653 346.577 C 770.653 244.901 770.653 143.224 770.653 38.467 C 533.408 38.467 296.163 38.467 51.729 38.467 Z M 51.729 397.928 C 51.729 414.875 51.729 431.821 51.729 449.28 C 288.974 449.28 526.219 449.28 770.653 449.28 C 770.653 432.334 770.653 415.388 770.653 397.928 C 533.408 397.928 296.163 397.928 51.729 397.928 Z M 179.42 671.082 C 174.921 678.191 173.926 684.114 174.973 692.345 C 178.377 701.481 183.372 706.815 192.09 711.174 C 201.036 711.932 207.485 711.679 215.118 706.707 C 221.008 701.412 224.134 694.974 225.001 687.123 C 224.574 678.677 221.148 673.402 215.393 667.371 C 210.579 663.164 206.306 661.896 200.114 660.892 C 192.118 662.008 184.865 664.953 179.42 671.082 Z M 603.225 671.269 C 598.812 677.951 597.036 682.65 597.769 690.633 C 599.944 698.453 603.393 704.187 610.286 708.606 C 619.169 712.22 625.043 712.491 634.036 709.141 C 640.948 704.686 644.807 700.148 647.408 692.345 C 648.199 684.123 647.454 678.18 642.962 671.082 C 637.534 664.973 630.303 662.106 622.375 660.785 C 614.261 662.279 609.154 665.603 603.225 671.269 Z M 389.152 718.235 C 386.26 725.627 386.098 732.445 387.227 740.273 C 390.929 747.815 394.753 752.595 402.632 755.678 C 411.265 756.85 417.748 756.661 425.633 752.79 C 431.383 747.601 434.63 744.139 435.697 736.281 C 436.151 726.494 435.101 720.413 428.308 712.885 C 421.74 707.09 415.241 706.872 406.805 707.148 C 398.823 708.3 394.327 712.37 389.152 718.235 Z" style="stroke-width: 4px; stroke-linecap: round; stroke-miterlimit: 7.66; stroke-dasharray: 2; fill-rule: nonzero; paint-order: fill; fill: rgb(240, 173, 68);"/>
  <path d="M 128.653 89.167 C 130.703 89.153 132.753 89.139 134.865 89.124 C 137.111 89.134 139.357 89.144 141.671 89.155 C 144.086 89.148 146.5 89.138 148.915 89.127 C 155.551 89.102 162.186 89.109 168.821 89.122 C 175.978 89.13 183.134 89.109 190.29 89.091 C 204.309 89.062 218.329 89.06 232.348 89.069 C 243.742 89.076 255.135 89.074 266.528 89.065 C 268.149 89.063 269.769 89.062 271.439 89.061 C 274.731 89.058 278.023 89.056 281.315 89.053 C 312.198 89.029 343.081 89.039 373.964 89.058 C 402.226 89.075 430.489 89.053 458.751 89.012 C 487.762 88.971 516.772 88.954 545.783 88.965 C 562.074 88.971 578.365 88.968 594.656 88.938 C 608.524 88.912 622.391 88.911 636.259 88.941 C 643.336 88.956 650.413 88.959 657.49 88.933 C 663.968 88.91 670.445 88.918 676.923 88.951 C 680.378 88.96 683.833 88.936 687.288 88.911 C 705.989 89.064 705.989 89.064 714.166 96.665 C 720.774 104.293 720.039 112.464 719.992 122.06 C 720.01 124.591 720.01 124.591 720.028 127.174 C 720.059 132.747 720.053 138.319 720.043 143.892 C 720.051 147.769 720.06 151.647 720.07 155.524 C 720.086 163.65 720.081 171.775 720.064 179.901 C 720.045 190.31 720.079 200.718 720.129 211.126 C 720.161 219.134 720.16 227.141 720.15 235.149 C 720.15 238.986 720.161 242.824 720.182 246.661 C 720.207 252.029 720.189 257.395 720.16 262.762 C 720.176 264.344 720.193 265.927 720.21 267.557 C 720.101 277.017 718.993 282.738 712.454 290.09 C 706.024 294.723 701.606 295.868 693.728 295.876 C 691.678 295.891 689.629 295.905 687.516 295.92 C 685.271 295.91 683.025 295.899 680.711 295.889 C 678.296 295.896 675.881 295.905 673.467 295.917 C 666.831 295.941 660.196 295.934 653.56 295.922 C 646.404 295.913 639.248 295.935 632.092 295.952 C 618.072 295.982 604.053 295.983 590.033 295.974 C 578.64 295.967 567.247 295.97 555.854 295.979 C 553.423 295.981 553.423 295.981 550.943 295.983 C 547.651 295.985 544.359 295.988 541.066 295.991 C 510.184 296.014 479.301 296.005 448.418 295.985 C 420.155 295.968 391.893 295.99 363.63 296.031 C 334.62 296.073 305.609 296.09 276.599 296.078 C 260.308 296.072 244.017 296.076 227.726 296.106 C 213.858 296.131 199.99 296.132 186.122 296.103 C 179.045 296.088 171.969 296.084 164.892 296.11 C 158.414 296.134 151.937 296.126 145.459 296.093 C 142.004 296.083 138.549 296.108 135.094 296.133 C 116.393 295.98 116.393 295.98 108.216 288.378 C 101.608 280.75 102.343 272.58 102.389 262.984 C 102.377 261.296 102.366 259.608 102.354 257.869 C 102.322 252.297 102.329 246.725 102.339 241.152 C 102.331 237.274 102.322 233.397 102.311 229.519 C 102.296 221.394 102.3 213.268 102.317 205.143 C 102.337 194.734 102.302 184.326 102.252 173.917 C 102.221 165.91 102.221 157.903 102.231 149.895 C 102.231 146.058 102.221 142.22 102.2 138.383 C 102.174 133.015 102.193 127.649 102.222 122.281 C 102.205 120.699 102.189 119.117 102.172 117.487 C 102.28 108.026 103.389 102.305 109.928 94.954 C 116.357 90.321 120.775 89.175 128.653 89.167 Z M 154.432 141.17 C 154.432 175.062 154.432 208.954 154.432 243.873 C 209.225 243.873 264.017 243.873 320.47 243.873 C 317.992 236.41 317.992 236.41 315.214 229.056 C 305.989 204.184 307.199 175.879 317.046 151.44 C 318.176 148.051 319.306 144.662 320.47 141.17 C 265.677 141.17 210.885 141.17 154.432 141.17 Z M 501.912 141.17 C 504.389 148.634 504.389 148.634 507.168 155.987 C 516.392 180.86 515.183 209.164 505.336 233.603 C 504.206 236.992 503.076 240.382 501.912 243.873 C 556.704 243.873 611.497 243.873 667.949 243.873 C 667.949 209.981 667.949 176.089 667.949 141.17 C 613.157 141.17 558.365 141.17 501.912 141.17 Z M 378.24 153.6 C 366.776 164.988 361.093 175.766 360.909 192.201 C 361.163 207.26 365.482 218.084 375.619 229.203 C 388.084 240.192 400.847 242.796 417.048 242.63 C 431.507 241.525 442.732 234.038 452.272 223.333 C 460.987 209.631 462.057 196.58 460.831 180.54 C 457.726 167.895 449.401 156.723 438.846 149.187 C 419.081 138.211 395.852 138.814 378.24 153.6 Z" style="fill: rgb(240, 173, 68);"/>
  <ellipse style="stroke: rgba(0, 0, 0, 0); fill: rgb(255, 255, 255);" cx="413.579" cy="192.227" rx="53.909" ry="52.399"/>
</svg>